<svg width="64" height="64" viewBox="0 0 64 64" fill="none" xmlns="http://www.w3.org/2000/svg">
<path fill-rule="evenodd" clip-rule="evenodd" d="M24.75 0L32.15 7.40002L39.476 0H52.15L36.35 15.8C35.15 16.9 33.7 17.45 32 17.45C30.3 17.45 28.9 16.9 27.8 15.8L12 0H24.75ZM0 52.15L15.8 36.35C16.9 35.15 17.45 33.7 17.45 32C17.45 30.3 16.9 28.9 15.8 27.8L0 12V24.75L7.39999 32.15L0 39.476V52.15ZM52 64L36.35 48.35C35.15 47.15 33.7 46.55 32 46.55C30.3 46.55 28.9 47.15 27.8 48.35L12.15 64H24.979L32.15 56.9L39.25 64H52ZM64 12.15L48.35 27.8C47.15 28.9 46.55 30.3 46.55 32C46.55 33.7 47.15 35.15 48.35 36.35L64 52V39.25L56.9 32.15L64 24.979V12.15Z" fill="#D9D9D9"/>
</svg>
