<svg width="900" height="300" viewBox="0 0 900 300" fill="none" xmlns="http://www.w3.org/2000/svg">
<g clip-path="url(#clip0_91_2)">
<path fill-rule="evenodd" clip-rule="evenodd" d="M0 0H60V60H0V0Z" fill="white" stroke="black"/>
<path fill-rule="evenodd" clip-rule="evenodd" d="M60 0H120V60H60V0Z" fill="white" stroke="black"/>
<path fill-rule="evenodd" clip-rule="evenodd" d="M120 0H180V60H120V0Z" fill="white" stroke="black"/>
<path fill-rule="evenodd" clip-rule="evenodd" d="M180 0H240V60H180V0Z" fill="white" stroke="black"/>
<path fill-rule="evenodd" clip-rule="evenodd" d="M240 0H300V60H240V0Z" fill="white" stroke="black"/>
<path fill-rule="evenodd" clip-rule="evenodd" d="M300 0H360V60H300V0Z" fill="white" stroke="black"/>
<path fill-rule="evenodd" clip-rule="evenodd" d="M360 0H420V60H360V0Z" fill="white" stroke="black"/>
<path fill-rule="evenodd" clip-rule="evenodd" d="M420 0H480V60H420V0Z" fill="white" stroke="black"/>
<path fill-rule="evenodd" clip-rule="evenodd" d="M480 0H540V60H480V0Z" fill="white" stroke="black"/>
<path fill-rule="evenodd" clip-rule="evenodd" d="M540 0H600V60H540V0Z" fill="white" stroke="black"/>
<path fill-rule="evenodd" clip-rule="evenodd" d="M600 0H660V60H600V0Z" fill="white" stroke="black"/>
<path fill-rule="evenodd" clip-rule="evenodd" d="M660 0H720V60H660V0Z" fill="white" stroke="black"/>
<path fill-rule="evenodd" clip-rule="evenodd" d="M720 0H780V60H720V0Z" fill="white" stroke="black"/>
<path fill-rule="evenodd" clip-rule="evenodd" d="M780 0H900V60H780V0Z" fill="#DFDFDF" stroke="black"/>
<path fill-rule="evenodd" clip-rule="evenodd" d="M0 60H90V120H0V60Z" fill="#DFDFDF" stroke="black"/>
<path fill-rule="evenodd" clip-rule="evenodd" d="M90 60H150V120H90V60Z" fill="white" stroke="black"/>
<path fill-rule="evenodd" clip-rule="evenodd" d="M150 60H210V120H150V60Z" fill="white" stroke="black"/>
<path fill-rule="evenodd" clip-rule="evenodd" d="M210 60H270V120H210V60Z" fill="white" stroke="black"/>
<path fill-rule="evenodd" clip-rule="evenodd" d="M270 60H330V120H270V60Z" fill="white" stroke="black"/>
<path fill-rule="evenodd" clip-rule="evenodd" d="M330 60H390V120H330V60Z" fill="white" stroke="black"/>
<path fill-rule="evenodd" clip-rule="evenodd" d="M390 60H450V120H390V60Z" fill="white" stroke="black"/>
<path fill-rule="evenodd" clip-rule="evenodd" d="M450 60H510V120H450V60Z" fill="white" stroke="black"/>
<path fill-rule="evenodd" clip-rule="evenodd" d="M510 60H570V120H510V60Z" fill="white" stroke="black"/>
<path fill-rule="evenodd" clip-rule="evenodd" d="M570 60H630V120H570V60Z" fill="white" stroke="black"/>
<path fill-rule="evenodd" clip-rule="evenodd" d="M630 60H690V120H630V60Z" fill="white" stroke="black"/>
<path fill-rule="evenodd" clip-rule="evenodd" d="M690 60H750V120H690V60Z" fill="white" stroke="black"/>
<path fill-rule="evenodd" clip-rule="evenodd" d="M750 60H810V120H750V60Z" fill="white" stroke="black"/>
<path fill-rule="evenodd" clip-rule="evenodd" d="M810 60H900V120H810V60Z" fill="white" stroke="black"/>
<path fill-rule="evenodd" clip-rule="evenodd" d="M0 120H105V180H0V120Z" fill="#DFDFDF" stroke="black"/>
<path fill-rule="evenodd" clip-rule="evenodd" d="M105 120H165V180H105V120Z" fill="white" stroke="black"/>
<path fill-rule="evenodd" clip-rule="evenodd" d="M165 120H225V180H165V120Z" fill="white" stroke="black"/>
<path fill-rule="evenodd" clip-rule="evenodd" d="M225 120H285V180H225V120Z" fill="white" stroke="black"/>
<path fill-rule="evenodd" clip-rule="evenodd" d="M285 120H345V180H285V120Z" fill="white" stroke="black"/>
<path fill-rule="evenodd" clip-rule="evenodd" d="M345 120H405V180H345V120Z" fill="white" stroke="black"/>
<path fill-rule="evenodd" clip-rule="evenodd" d="M405 120H465V180H405V120Z" fill="white" stroke="black"/>
<path fill-rule="evenodd" clip-rule="evenodd" d="M465 120H525V180H465V120Z" fill="white" stroke="black"/>
<path fill-rule="evenodd" clip-rule="evenodd" d="M525 120H585V180H525V120Z" fill="white" stroke="black"/>
<path fill-rule="evenodd" clip-rule="evenodd" d="M585 120H645V180H585V120Z" fill="white" stroke="black"/>
<path fill-rule="evenodd" clip-rule="evenodd" d="M645 120H705V180H645V120Z" fill="white" stroke="black"/>
<path fill-rule="evenodd" clip-rule="evenodd" d="M705 120H765V180H705V120Z" fill="white" stroke="black"/>
<path fill-rule="evenodd" clip-rule="evenodd" d="M765 120H900V180H765V120Z" fill="#DFDFDF" stroke="black"/>
<path fill-rule="evenodd" clip-rule="evenodd" d="M0 180H135V240H0V180Z" fill="#DFDFDF" stroke="black"/>
<path fill-rule="evenodd" clip-rule="evenodd" d="M135 180H195V240H135V180Z" fill="white" stroke="black"/>
<path fill-rule="evenodd" clip-rule="evenodd" d="M195 180H255V240H195V180Z" fill="white" stroke="black"/>
<path fill-rule="evenodd" clip-rule="evenodd" d="M255 180H315V240H255V180Z" fill="white" stroke="black"/>
<path fill-rule="evenodd" clip-rule="evenodd" d="M315 180H375V240H315V180Z" fill="white" stroke="black"/>
<path fill-rule="evenodd" clip-rule="evenodd" d="M375 180H435V240H375V180Z" fill="white" stroke="black"/>
<path fill-rule="evenodd" clip-rule="evenodd" d="M435 180H495V240H435V180Z" fill="white" stroke="black"/>
<path fill-rule="evenodd" clip-rule="evenodd" d="M495 180H555V240H495V180Z" fill="white" stroke="black"/>
<path fill-rule="evenodd" clip-rule="evenodd" d="M555 180H615V240H555V180Z" fill="white" stroke="black"/>
<path fill-rule="evenodd" clip-rule="evenodd" d="M615 180H675V240H615V180Z" fill="white" stroke="black"/>
<path fill-rule="evenodd" clip-rule="evenodd" d="M675 180H735V240H675V180Z" fill="white" stroke="black"/>
<path fill-rule="evenodd" clip-rule="evenodd" d="M735 180H900V240H735V180Z" fill="#DFDFDF" stroke="black"/>
<path fill-rule="evenodd" clip-rule="evenodd" d="M0 240H90V300H0V240Z" fill="#DFDFDF" stroke="black"/>
<path fill-rule="evenodd" clip-rule="evenodd" d="M810 240H900V300H810V240Z" fill="#DFDFDF" stroke="black"/>
<path fill-rule="evenodd" clip-rule="evenodd" d="M150 240H240V300H150V240Z" fill="#DFDFDF" stroke="black"/>
<path fill-rule="evenodd" clip-rule="evenodd" d="M600 240H690V300H600V240Z" fill="#DFDFDF" stroke="black"/>
<path fill-rule="evenodd" clip-rule="evenodd" d="M240 240H600V300H240V240Z" fill="white" stroke="black"/>
<path fill-rule="evenodd" clip-rule="evenodd" d="M90 240H150V300H90V240Z" fill="#EFEFEF" stroke="black"/>
<path fill-rule="evenodd" clip-rule="evenodd" d="M690 240H750V300H690V240Z" fill="#EFEFEF" stroke="black"/>
<path fill-rule="evenodd" clip-rule="evenodd" d="M750 240H810V300H750V240Z" fill="#EFEFEF" stroke="black"/>
<path d="M75.3516 18.8262L74.4375 11.0566V6.36914H78.0469V11.0566L77.1328 18.8262H75.3516ZM74.4844 23.6309V20.1738H77.9648V23.6309H74.4844ZM75.3516 53.6309V42.1582H71.3438V39.8027H71.6016C73.0625 39.8027 74.125 39.5762 74.7891 39.123C75.4609 38.6699 75.8555 37.9121 75.9727 36.8496H78.6562V53.6309H75.3516Z" fill="black"/>
<path d="M23.3438 14.2207V16.8105C22.5312 17.3652 21.7617 17.7754 21.0352 18.041C20.3164 18.2988 19.6055 18.4277 18.9023 18.4277C18.543 18.4277 18.1836 18.3965 17.8242 18.334C17.4648 18.2715 17.1055 18.1816 16.7461 18.0645C16.5586 18.002 16.2812 17.9043 15.9141 17.7715C14.2031 17.1856 12.9023 16.8926 12.0117 16.8926C11.3476 16.8926 10.6523 17.041 9.92578 17.3379C9.20703 17.627 8.39843 18.0918 7.5 18.7324V16.1426C8.33593 15.5801 9.13281 15.1621 9.89062 14.8887C10.6484 14.6074 11.3633 14.4668 12.0352 14.4668C12.9492 14.4668 14.0859 14.6934 15.4453 15.1465C15.4687 15.1543 15.4844 15.1582 15.4922 15.1582C15.6328 15.2051 15.8476 15.2793 16.1367 15.3809C17.3476 15.8106 18.2851 16.0254 18.9492 16.0254C19.6133 16.0254 20.2969 15.8809 21 15.5918C21.7031 15.3027 22.4844 14.8457 23.3438 14.2207ZM11.9883 35.0332H15.0117L17.3203 39.3691H15.6562L11.9883 35.0332Z" fill="black"/>
<path d="M136.476 20.4434C136.046 21.0996 135.55 21.584 134.988 21.8965C134.425 22.2012 133.761 22.3535 132.995 22.3535C131.761 22.3535 130.82 22.0176 130.171 21.3457C129.531 20.6738 129.21 19.6816 129.21 18.3691C129.21 16.502 129.753 14.9356 130.839 13.6699C131.933 12.4043 133.277 11.7715 134.87 11.7715C135.495 11.7715 136.038 11.9004 136.499 12.1582C136.96 12.416 137.339 12.7988 137.636 13.3066L138.257 12.1582H140.343L138.62 19.166C138.597 19.252 138.577 19.3418 138.562 19.4355C138.546 19.5215 138.538 19.5918 138.538 19.6465C138.538 19.9199 138.632 20.127 138.82 20.2676C139.007 20.4004 139.284 20.4668 139.652 20.4668C139.956 20.4668 140.273 20.3887 140.601 20.2324C140.937 20.0762 141.249 19.8574 141.538 19.5762C142.21 18.9512 142.718 18.2207 143.062 17.3848C143.413 16.5488 143.589 15.6309 143.589 14.6309C143.589 12.7559 142.863 11.2168 141.409 10.0137C139.964 8.80275 138.097 8.19728 135.808 8.19727C134.706 8.19728 133.679 8.33009 132.726 8.5957C131.781 8.86134 130.921 9.25587 130.148 9.7793C128.82 10.6699 127.796 11.7832 127.077 13.1191C126.366 14.4551 126.011 15.9199 126.011 17.5137C126.011 19.9121 126.82 21.8301 128.437 23.2676C130.054 24.6973 132.214 25.4121 134.917 25.4121C136.183 25.4121 137.417 25.2207 138.62 24.8379C139.831 24.4551 140.956 23.9004 141.995 23.1738L142.956 24.5449C141.761 25.4434 140.491 26.1191 139.148 26.5723C137.812 27.0254 136.417 27.252 134.964 27.252C133.464 27.252 132.085 27.0605 130.827 26.6777C129.57 26.3027 128.452 25.7441 127.476 25.002C126.265 24.0566 125.359 22.9668 124.757 21.7324C124.156 20.498 123.855 19.0996 123.855 17.5371C123.855 16.2324 124.058 14.9902 124.464 13.8105C124.878 12.6231 125.484 11.5449 126.281 10.5762C127.437 9.16212 128.827 8.09181 130.452 7.36523C132.077 6.63869 133.886 6.27541 135.878 6.27539C137.198 6.27541 138.437 6.4551 139.593 6.81445C140.757 7.16603 141.769 7.66603 142.628 8.31445C143.683 9.13478 144.468 10.0723 144.984 11.127C145.507 12.1738 145.769 13.3574 145.769 14.6777C145.769 15.9668 145.511 17.1582 144.995 18.252C144.488 19.3379 143.753 20.2676 142.792 21.041C142.245 21.4785 141.648 21.8145 140.999 22.0488C140.359 22.2754 139.691 22.3887 138.995 22.3887C138.167 22.3887 137.542 22.2246 137.12 21.8965C136.706 21.5684 136.491 21.084 136.476 20.4434ZM137.062 15.4277C136.96 14.7949 136.734 14.3145 136.382 13.9863C136.038 13.6504 135.581 13.4824 135.011 13.4824C134.12 13.4824 133.347 13.9668 132.691 14.9355C132.034 15.9043 131.706 17.0684 131.706 18.4277C131.706 19.1465 131.863 19.6934 132.175 20.0684C132.495 20.4434 132.956 20.6309 133.558 20.6309C134.206 20.6309 134.796 20.3848 135.327 19.8926C135.866 19.4004 136.234 18.7598 136.429 17.9707L137.062 15.4277ZM128.566 53.6309C128.581 52.1309 128.902 50.8613 129.527 49.8223C130.152 48.7754 131.261 47.7168 132.855 46.6465C133.097 46.4824 133.448 46.2559 133.909 45.9668C136.019 44.6152 137.073 43.3145 137.073 42.0645C137.073 41.3223 136.851 40.7363 136.406 40.3066C135.96 39.877 135.351 39.6621 134.577 39.6621C133.734 39.6621 133.081 39.9277 132.62 40.459C132.167 40.9824 131.941 41.7324 131.941 42.709V42.8496H128.847C128.847 40.9277 129.363 39.4473 130.394 38.4082C131.425 37.3692 132.894 36.8496 134.8 36.8496C136.527 36.8496 137.906 37.3223 138.937 38.2676C139.968 39.2051 140.484 40.4551 140.484 42.0176C140.484 43.1348 140.214 44.1035 139.675 44.9238C139.136 45.7441 138.093 46.6777 136.546 47.7246C136.218 47.9512 135.765 48.2481 135.187 48.6152C133.718 49.5606 132.89 50.2793 132.702 50.7715H140.32V53.6309H128.566Z" fill="black"/>
<path d="M195.281 13.6934L194.25 16.5527H197.191L198.199 13.6934H195.281ZM195.281 6.47461H197.871L196.16 11.3379H198.996L200.73 6.47461H203.32L201.586 11.3379H204.902L204.035 13.6934H200.754L199.77 16.5293H203.168L202.336 18.873H198.926L197.191 23.748H194.602L196.336 18.873H193.477L191.73 23.748H189.152L190.863 18.873H187.5L188.391 16.5293H191.695L192.703 13.6934H189.199L190.066 11.3379H193.547L195.281 6.47461ZM190.078 48.5215H193.301C193.309 49.459 193.535 50.166 193.98 50.6426C194.426 51.1113 195.086 51.3457 195.961 51.3457C196.805 51.3457 197.453 51.127 197.906 50.6895C198.367 50.2441 198.598 49.6074 198.598 48.7793C198.598 47.9512 198.328 47.3262 197.789 46.9043C197.258 46.4746 196.465 46.2598 195.41 46.2598C195.355 46.2598 195.27 46.2637 195.152 46.2715C195.043 46.2793 194.961 46.2832 194.906 46.2832V43.9629H195.27C196.238 43.9629 196.953 43.7754 197.414 43.4004C197.883 43.0176 198.117 42.4356 198.117 41.6543C198.117 41.0059 197.918 40.4942 197.52 40.1191C197.129 39.7363 196.594 39.5449 195.914 39.5449C195.172 39.5449 194.598 39.7637 194.191 40.2012C193.785 40.6387 193.582 41.2598 193.582 42.0645V42.2051H190.418C190.457 40.4863 190.961 39.1699 191.93 38.2559C192.906 37.334 194.281 36.8731 196.055 36.873C197.734 36.8731 199.066 37.2832 200.051 38.1035C201.035 38.9238 201.527 40.0293 201.527 41.4199C201.527 42.1543 201.359 42.7988 201.023 43.3535C200.687 43.9082 200.184 44.3652 199.512 44.7246C200.371 45.0996 201.02 45.6191 201.457 46.2832C201.902 46.9395 202.125 47.7246 202.125 48.6387C202.125 50.3184 201.574 51.6504 200.473 52.6348C199.371 53.6191 197.867 54.1113 195.961 54.1113C194.078 54.1113 192.625 53.6348 191.602 52.6816C190.586 51.7207 190.078 50.3574 190.078 48.5918V48.5215Z" fill="black"/>
<path d="M254.461 21.4512C255.102 21.3652 255.59 21.1348 255.926 20.7598C256.262 20.3848 256.43 19.8848 256.43 19.2598C256.43 18.7051 256.27 18.2481 255.949 17.8887C255.637 17.5215 255.141 17.2363 254.461 17.0332V21.4512ZM253.066 13.4355V9.45117C252.457 9.52931 251.992 9.74025 251.672 10.084C251.352 10.4199 251.191 10.8731 251.191 11.4434C251.191 11.9199 251.34 12.3184 251.637 12.6387C251.941 12.959 252.418 13.2246 253.066 13.4355ZM253.066 26.2676V24.0176C251.301 23.9082 249.98 23.3965 249.105 22.4824C248.23 21.5684 247.793 20.2481 247.793 18.5215H250.934C250.973 19.3652 251.168 20.0332 251.52 20.5254C251.879 21.0098 252.395 21.3184 253.066 21.4512V16.5996C251.254 16.1387 249.965 15.5371 249.199 14.7949C248.434 14.0527 248.051 13.0371 248.051 11.748C248.051 10.3184 248.504 9.16603 249.41 8.29102C250.324 7.41603 251.543 6.959 253.066 6.91992V5.41992H254.461V6.91992C255.984 6.99806 257.172 7.459 258.023 8.30273C258.875 9.13869 259.344 10.3184 259.43 11.8418H256.242C256.187 11.1152 256.012 10.5606 255.715 10.1777C255.426 9.78712 255.008 9.56837 254.461 9.52148V13.7871C256.391 14.3887 257.75 15.0762 258.539 15.8496C259.328 16.6231 259.723 17.6426 259.723 18.9082C259.723 20.4004 259.262 21.5918 258.34 22.4824C257.426 23.373 256.133 23.8926 254.461 24.041V26.2676H253.066ZM254.648 47.4199V40.2363L250.09 47.4199H254.648ZM254.578 53.6309V50.0098H247.5V47.0566L253.688 37.3301H257.848V47.3379H259.793V50.0098H257.848V53.6309H254.578Z" fill="black"/>
<path d="M320.426 19.7402C320.426 20.2637 320.602 20.7051 320.953 21.0645C321.305 21.416 321.738 21.5918 322.254 21.5918C322.754 21.5918 323.184 21.4121 323.543 21.0527C323.902 20.6856 324.082 20.2481 324.082 19.7402C324.082 19.2402 323.902 18.8145 323.543 18.4629C323.191 18.1035 322.762 17.9238 322.254 17.9238C321.738 17.9238 321.305 18.0996 320.953 18.4512C320.602 18.7949 320.426 19.2246 320.426 19.7402ZM317.883 19.7402C317.883 18.5215 318.305 17.4941 319.148 16.6582C319.992 15.8223 321.027 15.4043 322.254 15.4043C323.457 15.4043 324.48 15.8301 325.324 16.6816C326.176 17.5254 326.602 18.5449 326.602 19.7402C326.602 20.9434 326.176 21.9746 325.324 22.834C324.473 23.6855 323.449 24.1113 322.254 24.1113C321.027 24.1113 319.992 23.6895 319.148 22.8457C318.305 22.002 317.883 20.9668 317.883 19.7402ZM311.074 24.1113L321.082 6.84961H322.969L312.961 24.1113H311.074ZM310.043 11.2207C310.043 11.7363 310.215 12.1699 310.559 12.5215C310.91 12.8731 311.344 13.0488 311.859 13.0488C312.367 13.0488 312.797 12.8731 313.148 12.5215C313.508 12.1621 313.687 11.7285 313.688 11.2207C313.687 10.7207 313.508 10.2949 313.148 9.94336C312.797 9.584 312.367 9.40431 311.859 9.4043C311.344 9.40431 310.91 9.58009 310.559 9.93164C310.215 10.2754 310.043 10.7051 310.043 11.2207ZM307.5 11.2207C307.5 10.002 307.922 8.97072 308.766 8.12695C309.609 7.27541 310.641 6.84963 311.859 6.84961C313.062 6.84963 314.086 7.27931 314.93 8.13867C315.781 8.99025 316.207 10.0176 316.207 11.2207C316.207 12.4238 315.781 13.4512 314.93 14.3027C314.086 15.1465 313.062 15.5684 311.859 15.5684C310.633 15.5684 309.598 15.1504 308.754 14.3145C307.918 13.4785 307.5 12.4473 307.5 11.2207ZM310.852 49.1191H314.133C314.188 49.8535 314.434 50.4238 314.871 50.8301C315.309 51.2285 315.895 51.4277 316.629 51.4277C317.535 51.4277 318.227 51.1621 318.703 50.6309C319.187 50.0996 319.43 49.3379 319.43 48.3457C319.43 47.416 319.184 46.6856 318.691 46.1543C318.199 45.6152 317.52 45.3457 316.652 45.3457C316.168 45.3457 315.742 45.4434 315.375 45.6387C315.008 45.834 314.695 46.1231 314.438 46.5059L311.414 46.3301L312.504 37.3301H322.148V40.166H314.871L314.438 43.5293C314.805 43.2402 315.227 43.0254 315.703 42.8848C316.18 42.7363 316.711 42.6621 317.297 42.6621C318.969 42.6621 320.316 43.1699 321.34 44.1855C322.371 45.2012 322.887 46.5332 322.887 48.1816C322.887 49.9863 322.32 51.4277 321.188 52.5059C320.055 53.5762 318.535 54.1113 316.629 54.1113C314.895 54.1113 313.512 53.6699 312.48 52.7871C311.457 51.8965 310.914 50.6738 310.852 49.1191Z" fill="black"/>
<path d="M373.137 6.52148H376.09L381.727 13.0957H378.973L374.625 8.74805L370.254 13.0957H367.5L373.137 6.52148ZM372.152 48.2988C372.152 49.2598 372.391 50.0215 372.867 50.584C373.352 51.1465 374.008 51.4277 374.836 51.4277C375.609 51.4277 376.215 51.1543 376.652 50.6074C377.09 50.0605 377.309 49.2988 377.309 48.3223C377.309 47.4238 377.082 46.7246 376.629 46.2246C376.176 45.7246 375.539 45.4746 374.719 45.4746C373.914 45.4746 373.285 45.7246 372.832 46.2246C372.379 46.7246 372.152 47.416 372.152 48.2988ZM372.105 43.916C372.488 43.5254 372.949 43.2324 373.488 43.0371C374.027 42.834 374.629 42.7324 375.293 42.7324C376.934 42.7324 378.246 43.2324 379.23 44.2324C380.223 45.2324 380.719 46.5645 380.719 48.2285C380.719 49.9941 380.18 51.4199 379.102 52.5059C378.023 53.5918 376.602 54.1348 374.836 54.1348C372.797 54.1348 371.246 53.4316 370.184 52.0254C369.129 50.6191 368.602 48.5606 368.602 45.8496C368.602 42.9356 369.168 40.709 370.301 39.1699C371.434 37.6231 373.066 36.8496 375.199 36.8496C376.684 36.8496 377.879 37.2363 378.785 38.0098C379.699 38.7832 380.199 39.8301 380.285 41.1504H376.887C376.809 40.6113 376.598 40.2051 376.254 39.9316C375.91 39.6582 375.43 39.5215 374.812 39.5215C373.969 39.5215 373.32 39.8887 372.867 40.623C372.414 41.3496 372.16 42.4473 372.105 43.916Z" fill="black"/>
<path d="M432.855 16.0957L431.965 16.7402C431.605 16.9902 431.336 17.291 431.156 17.6426C430.977 17.9941 430.887 18.3887 430.887 18.8262C430.887 19.4902 431.113 20.0488 431.566 20.502C432.02 20.9551 432.586 21.1816 433.266 21.1816C433.766 21.1816 434.242 21.0801 434.695 20.877C435.156 20.666 435.582 20.3613 435.973 19.9629L432.855 16.0957ZM433.793 12.4043L434.203 12.1113C434.578 11.8535 434.855 11.5645 435.035 11.2441C435.215 10.9238 435.305 10.5567 435.305 10.1426C435.305 9.74415 435.18 9.42775 434.93 9.19336C434.687 8.959 434.355 8.84181 433.934 8.8418C433.504 8.84181 433.164 8.96291 432.914 9.20508C432.664 9.43947 432.539 9.75978 432.539 10.166C432.539 10.3848 432.598 10.6231 432.715 10.8809C432.84 11.1387 433.016 11.4121 433.242 11.7012L433.793 12.4043ZM431.156 13.9629L430.477 13.0723C430.125 12.6035 429.871 12.166 429.715 11.7598C429.566 11.3457 429.492 10.9121 429.492 10.459C429.492 9.209 429.891 8.21681 430.688 7.48242C431.492 6.74025 432.582 6.36916 433.957 6.36914C435.277 6.36916 436.32 6.709 437.086 7.38867C437.852 8.06837 438.234 8.98634 438.234 10.1426C438.234 11.0176 438.008 11.8027 437.555 12.498C437.109 13.1856 436.406 13.834 435.445 14.4434L437.918 17.4902C438.152 17.1074 438.336 16.6777 438.469 16.2012C438.609 15.7246 438.707 15.1934 438.762 14.6074H441.809C441.723 15.6231 441.512 16.5645 441.176 17.4316C440.84 18.2988 440.379 19.0918 439.793 19.8105L442.934 23.6309H438.949L437.777 22.1895C437.09 22.8223 436.332 23.3027 435.504 23.6309C434.684 23.9512 433.824 24.1113 432.926 24.1113C431.332 24.1113 430.027 23.6387 429.012 22.6934C428.004 21.748 427.5 20.541 427.5 19.0723C427.5 17.9785 427.781 17.0371 428.344 16.248C428.906 15.459 429.844 14.6973 431.156 13.9629ZM434.66 53.6309H431.156C431.281 51.3418 431.832 49.0723 432.809 46.8223C433.793 44.5723 435.195 42.3613 437.016 40.1895H428.766V37.3301H440.66V39.8496C438.816 41.8809 437.398 44.0293 436.406 46.2949C435.422 48.5606 434.84 51.0059 434.66 53.6309Z" fill="black"/>
<path d="M493.5 13.2129L491.438 16.1191L489.445 14.7246L491.695 11.9004L488.414 10.9863L489.176 8.60742L492.328 9.73242V6.36914H494.648V9.73242L497.801 8.63086L498.586 11.0098L495.305 11.9004L497.531 14.7012L495.492 16.166L493.5 13.2129ZM490.875 48.7559C490.875 49.5762 491.102 50.209 491.555 50.6543C492.016 51.0996 492.672 51.3223 493.523 51.3223C494.336 51.3223 494.973 51.0957 495.434 50.6426C495.902 50.1895 496.137 49.5606 496.137 48.7559C496.137 47.9824 495.898 47.3613 495.422 46.8926C494.945 46.4238 494.312 46.1895 493.523 46.1895C492.734 46.1895 492.094 46.4277 491.602 46.9043C491.117 47.3809 490.875 47.9981 490.875 48.7559ZM491.145 41.5605C491.145 42.209 491.348 42.709 491.754 43.0605C492.16 43.4043 492.742 43.5762 493.5 43.5762C494.258 43.5762 494.84 43.4004 495.246 43.0488C495.66 42.6973 495.867 42.2012 495.867 41.5605C495.867 40.9356 495.656 40.4434 495.234 40.084C494.812 39.7246 494.234 39.5449 493.5 39.5449C492.781 39.5449 492.207 39.7285 491.777 40.0957C491.355 40.4629 491.145 40.9512 491.145 41.5605ZM489.938 44.8184C489.234 44.4277 488.727 43.9707 488.414 43.4473C488.102 42.9238 487.945 42.2559 487.945 41.4434C487.945 40.0059 488.437 38.877 489.422 38.0566C490.406 37.2363 491.766 36.8262 493.5 36.8262C495.25 36.8262 496.617 37.2363 497.602 38.0566C498.594 38.8692 499.09 39.9981 499.09 41.4434C499.09 42.2168 498.922 42.8887 498.586 43.459C498.25 44.0215 497.746 44.4746 497.074 44.8184C497.895 45.2012 498.512 45.7324 498.926 46.4121C499.34 47.084 499.547 47.9043 499.547 48.873C499.547 50.5059 499.008 51.7871 497.93 52.7168C496.859 53.6465 495.383 54.1113 493.5 54.1113C491.594 54.1113 490.113 53.6504 489.059 52.7285C488.004 51.8066 487.477 50.5215 487.477 48.873C487.477 47.9121 487.672 47.1074 488.062 46.459C488.461 45.8027 489.086 45.2559 489.938 44.8184Z" fill="black"/>
<path d="M557.859 6.36914C556.781 8.13478 555.98 9.93165 555.457 11.7598C554.934 13.5879 554.672 15.5059 554.672 17.5137C554.672 19.5137 554.934 21.4277 555.457 23.2559C555.98 25.084 556.781 26.8809 557.859 28.6465H555.387C554.02 26.7793 552.98 24.9043 552.27 23.0215C551.566 21.1309 551.215 19.2949 551.215 17.5137C551.215 15.7324 551.566 13.8965 552.27 12.0059C552.98 10.1152 554.02 8.23634 555.387 6.36914H557.859ZM556.066 42.6855C556.066 41.7246 555.824 40.9668 555.34 40.4121C554.863 39.8496 554.211 39.5684 553.383 39.5684C552.602 39.5684 551.992 39.8379 551.555 40.377C551.125 40.916 550.91 41.6699 550.91 42.6387C550.91 43.5449 551.137 44.252 551.59 44.7598C552.043 45.2676 552.68 45.5215 553.5 45.5215C554.305 45.5215 554.934 45.2715 555.387 44.7715C555.84 44.2715 556.066 43.5762 556.066 42.6855ZM556.125 47.0566C555.734 47.4473 555.273 47.7402 554.742 47.9355C554.211 48.1309 553.613 48.2285 552.949 48.2285C551.301 48.2285 549.98 47.7324 548.988 46.7402C547.996 45.7481 547.5 44.4199 547.5 42.7559C547.5 40.9902 548.039 39.5645 549.117 38.4785C550.195 37.3926 551.617 36.8496 553.383 36.8496C555.43 36.8496 556.984 37.5567 558.047 38.9707C559.117 40.377 559.652 42.4317 559.652 45.1348C559.652 48.041 559.082 50.2676 557.941 51.8145C556.801 53.3613 555.16 54.1348 553.02 54.1348C551.543 54.1348 550.352 53.752 549.445 52.9863C548.539 52.2129 548.043 51.1621 547.957 49.834L551.344 49.8457C551.422 50.3848 551.633 50.7871 551.977 51.0527C552.32 51.3184 552.805 51.4512 553.43 51.4512C554.273 51.4512 554.918 51.084 555.363 50.3496C555.809 49.6152 556.062 48.5176 556.125 47.0566Z" fill="black"/>
<path d="M609.375 6.36914H611.871C613.23 8.22853 614.262 10.1035 614.965 11.9941C615.668 13.877 616.02 15.7168 616.02 17.5137C616.02 19.3027 615.668 21.1426 614.965 23.0332C614.262 24.9238 613.23 26.7949 611.871 28.6465H609.375C610.461 26.873 611.266 25.0723 611.789 23.2441C612.32 21.4082 612.586 19.4981 612.586 17.5137C612.586 15.5215 612.32 13.6113 611.789 11.7832C611.266 9.95509 610.461 8.15041 609.375 6.36914ZM610.98 45.4746C610.98 47.5137 611.184 48.9941 611.59 49.916C612.004 50.8379 612.66 51.2988 613.559 51.2988C614.457 51.2988 615.113 50.834 615.527 49.9043C615.941 48.9746 616.148 47.4981 616.148 45.4746C616.148 43.4434 615.941 41.9668 615.527 41.0449C615.113 40.1231 614.457 39.6621 613.559 39.6621C612.66 39.6621 612.004 40.1231 611.59 41.0449C611.184 41.959 610.98 43.4356 610.98 45.4746ZM607.5 45.4746C607.5 42.5918 608 40.4356 609 39.0059C610.008 37.5684 611.527 36.8496 613.559 36.8496C615.582 36.8496 617.098 37.5723 618.105 39.0176C619.121 40.4551 619.629 42.6152 619.629 45.498C619.629 48.3809 619.125 50.5332 618.117 51.9551C617.117 53.377 615.598 54.0879 613.559 54.0879C611.527 54.0879 610.008 53.373 609 51.9434C608 50.5137 607.5 48.3574 607.5 45.4746Z" fill="black"/>
<path d="M667.5 26.9004H679.5V29.291H667.5V26.9004ZM670.207 48.8496V45.6387H676.793V48.8496H670.207Z" fill="black"/>
<path d="M733.336 9.32227H735.703V15.2988H741.539V17.6309H735.703V23.6309H733.336V17.6309H727.5V15.2988H733.336V9.32227ZM727.5 47.8184H741.539V50.1504H727.5V47.8184ZM727.5 42.7793H741.539V45.1113H727.5V42.7793Z" fill="black"/>
<path d="M11.0703 95.6016V86.1484H7.65625V84.0938H16.8281V86.1484H13.4375V95.6016H11.0703ZM22.8594 94.5469C22.5729 94.9896 22.1979 95.3281 21.7344 95.5625C21.2708 95.7917 20.7318 95.9062 20.1172 95.9062C19.2943 95.9062 18.6589 95.6719 18.2109 95.2031C17.7682 94.7344 17.5469 94.0677 17.5469 93.2031C17.5469 92.401 17.7682 91.7891 18.2109 91.3672C18.6589 90.9453 19.3958 90.6563 20.4219 90.5C20.6562 90.4635 20.9635 90.4219 21.3438 90.375C22.3073 90.25 22.7891 89.9714 22.7891 89.5391C22.7891 89.1953 22.6823 88.9505 22.4688 88.8047C22.2552 88.6537 21.8984 88.5781 21.3984 88.5781C20.9401 88.5781 20.5885 88.6693 20.3438 88.8516C20.099 89.0339 19.9766 89.2943 19.9766 89.6328V89.7578H17.8516V89.6016C17.8516 88.7318 18.1589 88.0495 18.7734 87.5547C19.388 87.0547 20.237 86.8047 21.3203 86.8047C22.5078 86.8047 23.4167 87.0104 24.0469 87.4219C24.6823 87.8333 25 88.4271 25 89.2031V94.0312C25 94.3854 25.0364 94.651 25.1094 94.8281C25.1823 95 25.3047 95.1302 25.4766 95.2188V95.6016H23.1094C23.0312 95.4557 22.9713 95.2943 22.9297 95.1172C22.888 94.9401 22.8646 94.75 22.8594 94.5469ZM22.8203 91.4219C22.4505 91.5938 22.0234 91.7318 21.5391 91.8359C21.0599 91.9401 20.8125 91.9948 20.7969 92C20.3958 92.1146 20.1146 92.2578 19.9531 92.4297C19.7969 92.6016 19.7187 92.8385 19.7188 93.1406C19.7187 93.4531 19.8203 93.7031 20.0234 93.8906C20.2266 94.0729 20.5 94.1641 20.8438 94.1641C21.4583 94.1641 21.9401 93.9922 22.2891 93.6484C22.6432 93.2995 22.8203 92.8255 22.8203 92.2266V91.4219ZM27.0391 84.0938H29.25V88.1641C29.5312 87.7214 29.8828 87.388 30.3047 87.1641C30.7318 86.9349 31.2161 86.8203 31.7578 86.8203C32.7838 86.8203 33.6224 87.2448 34.2734 88.0938C34.9245 88.9375 35.25 90.0365 35.25 91.3906C35.25 92.7344 34.9245 93.8203 34.2734 94.6484C33.6224 95.4766 32.7734 95.8906 31.7266 95.8906C31.1797 95.8906 30.7031 95.776 30.2969 95.5469C29.8958 95.3177 29.5312 94.9531 29.2031 94.4531V95.6016H27.0391V84.0938ZM32.9922 91.2969C32.9922 90.5156 32.8281 89.9037 32.5 89.4609C32.1719 89.013 31.7213 88.7891 31.1484 88.7891C30.5443 88.7891 30.0755 89.0078 29.7422 89.4453C29.4141 89.8776 29.25 90.4948 29.25 91.2969C29.25 92.1615 29.4062 92.8177 29.7188 93.2656C30.0365 93.7135 30.4974 93.9375 31.1016 93.9375C31.7161 93.9375 32.1849 93.7135 32.5078 93.2656C32.8307 92.8125 32.9922 92.1563 32.9922 91.2969Z" fill="black"/>
<path d="M789.766 44.3691H792.57C793.232 44.3691 793.714 44.2494 794.016 44.0098C794.318 43.7702 794.469 43.3926 794.469 42.877C794.469 42.3405 794.32 41.9551 794.023 41.7207C793.727 41.4811 793.237 41.3613 792.555 41.3613H789.766V44.3691ZM789.766 39.3926H792.469C793.052 39.3926 793.479 39.2936 793.75 39.0957C794.021 38.8926 794.156 38.5749 794.156 38.1426C794.156 37.7207 794.023 37.416 793.758 37.2285C793.497 37.0358 793.062 36.9395 792.453 36.9395H789.766V39.3926ZM787.5 46.4473V34.9395H792.922C794.099 34.9395 794.995 35.1895 795.609 35.6895C796.229 36.1843 796.539 36.9056 796.539 37.8535C796.539 38.4369 796.424 38.9238 796.195 39.3145C795.966 39.7051 795.622 40.0072 795.164 40.2207C795.758 40.4603 796.201 40.8066 796.492 41.2598C796.789 41.7077 796.937 42.2676 796.938 42.9395C796.937 44.0592 796.573 44.9238 795.844 45.5332C795.115 46.1426 794.081 46.4473 792.742 46.4473H787.5ZM803.453 45.3926C803.167 45.8353 802.792 46.1738 802.328 46.4082C801.865 46.6374 801.326 46.752 800.711 46.752C799.888 46.752 799.253 46.5176 798.805 46.0488C798.362 45.5801 798.141 44.9134 798.141 44.0488C798.141 43.2467 798.362 42.6348 798.805 42.2129C799.253 41.791 799.99 41.502 801.016 41.3457C801.25 41.3093 801.557 41.2676 801.938 41.2207C802.901 41.0957 803.383 40.8171 803.383 40.3848C803.383 40.041 803.276 39.7962 803.062 39.6504C802.849 39.4994 802.492 39.4238 801.992 39.4238C801.534 39.4238 801.182 39.515 800.938 39.6973C800.693 39.8796 800.57 40.14 800.57 40.4785V40.6035H798.445V40.4473C798.445 39.5775 798.753 38.8952 799.367 38.4004C799.982 37.9004 800.831 37.6504 801.914 37.6504C803.102 37.6504 804.01 37.8561 804.641 38.2676C805.276 38.679 805.594 39.2728 805.594 40.0488V44.877C805.594 45.2311 805.63 45.4967 805.703 45.6738C805.776 45.8457 805.898 45.9759 806.07 46.0645V46.4473H803.703C803.625 46.3014 803.565 46.14 803.523 45.9629C803.482 45.7858 803.458 45.5957 803.453 45.3926ZM803.414 42.2676C803.044 42.4395 802.617 42.5775 802.133 42.6816C801.654 42.7858 801.406 42.8405 801.391 42.8457C800.99 42.9603 800.708 43.1035 800.547 43.2754C800.391 43.4473 800.312 43.6842 800.312 43.9863C800.312 44.2988 800.414 44.5488 800.617 44.7363C800.82 44.9186 801.094 45.0098 801.438 45.0098C802.052 45.0098 802.534 44.8379 802.883 44.4941C803.237 44.1452 803.414 43.6712 803.414 43.0723V42.2676ZM812.719 43.2441H814.961C814.867 44.3223 814.474 45.1738 813.781 45.7988C813.089 46.4238 812.198 46.7363 811.109 46.7363C809.875 46.7363 808.906 46.3353 808.203 45.5332C807.505 44.7259 807.156 43.6113 807.156 42.1895C807.156 40.7728 807.513 39.6634 808.227 38.8613C808.945 38.054 809.932 37.6504 811.188 37.6504C812.286 37.6504 813.167 37.9421 813.828 38.5254C814.495 39.1087 814.867 39.9212 814.945 40.9629H812.688C812.625 40.5098 812.466 40.1634 812.211 39.9238C811.956 39.6843 811.62 39.5645 811.203 39.5645C810.641 39.5645 810.219 39.7858 809.938 40.2285C809.661 40.6712 809.523 41.3353 809.523 42.2207C809.523 43.0384 809.667 43.6686 809.953 44.1113C810.245 44.5488 810.661 44.7676 811.203 44.7676C811.625 44.7676 811.964 44.64 812.219 44.3848C812.474 44.1296 812.641 43.7494 812.719 43.2441ZM816.445 46.4473V34.9395H818.656V40.9785L821.359 37.9551H824.094L821.133 41.1035L824.273 46.4473H821.547L819.516 42.8301L818.656 43.7598V46.4473H816.445ZM824.797 43.6816H827.062C827.083 44.1139 827.24 44.4369 827.531 44.6504C827.823 44.8587 828.26 44.9629 828.844 44.9629C829.286 44.9629 829.628 44.89 829.867 44.7441C830.112 44.5931 830.234 44.3822 830.234 44.1113C830.234 43.7259 829.781 43.4369 828.875 43.2441C828.505 43.166 828.211 43.0983 827.992 43.041C826.888 42.7598 826.12 42.4264 825.688 42.041C825.26 41.6556 825.047 41.1348 825.047 40.4785C825.047 39.6087 825.359 38.9212 825.984 38.416C826.615 37.9056 827.466 37.6504 828.539 37.6504C829.674 37.6504 830.565 37.903 831.211 38.4082C831.862 38.9134 832.208 39.6244 832.25 40.541H830.039C830.023 40.1816 829.885 39.903 829.625 39.7051C829.37 39.5072 829.013 39.4082 828.555 39.4082C828.122 39.4082 827.799 39.4733 827.586 39.6035C827.378 39.7337 827.273 39.929 827.273 40.1895C827.273 40.528 827.839 40.8275 828.969 41.0879C829.229 41.1452 829.435 41.1921 829.586 41.2285C830.716 41.4941 831.487 41.8145 831.898 42.1895C832.315 42.5645 832.523 43.0931 832.523 43.7754C832.523 44.7389 832.182 45.4733 831.5 45.9785C830.823 46.4837 829.836 46.7363 828.539 46.7363C827.367 46.7363 826.451 46.4733 825.789 45.9473C825.128 45.4212 824.797 44.6973 824.797 43.7754V43.6816ZM840.023 42.252C840.023 41.3978 839.862 40.7468 839.539 40.2988C839.216 39.8457 838.747 39.6191 838.133 39.6191C837.529 39.6191 837.068 39.8431 836.75 40.291C836.438 40.7389 836.281 41.3926 836.281 42.252C836.281 43.054 836.445 43.6738 836.773 44.1113C837.107 44.5488 837.576 44.7676 838.18 44.7676C838.753 44.7676 839.203 44.5436 839.531 44.0957C839.859 43.6478 840.023 43.0332 840.023 42.252ZM834.07 49.8535V37.9551H836.234V39.1035C836.562 38.6035 836.927 38.2389 837.328 38.0098C837.734 37.7806 838.211 37.666 838.758 37.666C839.805 37.666 840.654 38.0801 841.305 38.9082C841.956 39.7311 842.281 40.8145 842.281 42.1582C842.281 43.5176 841.956 44.6217 841.305 45.4707C840.654 46.3145 839.815 46.7363 838.789 46.7363C838.247 46.7363 837.763 46.6217 837.336 46.3926C836.914 46.1634 836.562 45.8301 836.281 45.3926V49.8535H834.07ZM848.703 45.3926C848.417 45.8353 848.042 46.1738 847.578 46.4082C847.115 46.6374 846.576 46.752 845.961 46.752C845.138 46.752 844.503 46.5176 844.055 46.0488C843.612 45.5801 843.391 44.9134 843.391 44.0488C843.391 43.2467 843.612 42.6348 844.055 42.2129C844.503 41.791 845.24 41.502 846.266 41.3457C846.5 41.3093 846.807 41.2676 847.188 41.2207C848.151 41.0957 848.633 40.8171 848.633 40.3848C848.633 40.041 848.526 39.7962 848.312 39.6504C848.099 39.4994 847.742 39.4238 847.242 39.4238C846.784 39.4238 846.432 39.515 846.188 39.6973C845.943 39.8796 845.82 40.14 845.82 40.4785V40.6035H843.695V40.4473C843.695 39.5775 844.003 38.8952 844.617 38.4004C845.232 37.9004 846.081 37.6504 847.164 37.6504C848.352 37.6504 849.26 37.8561 849.891 38.2676C850.526 38.679 850.844 39.2728 850.844 40.0488V44.877C850.844 45.2311 850.88 45.4967 850.953 45.6738C851.026 45.8457 851.148 45.9759 851.32 46.0645V46.4473H848.953C848.875 46.3014 848.815 46.14 848.773 45.9629C848.732 45.7858 848.708 45.5957 848.703 45.3926ZM848.664 42.2676C848.294 42.4395 847.867 42.5775 847.383 42.6816C846.904 42.7858 846.656 42.8405 846.641 42.8457C846.24 42.9603 845.958 43.1035 845.797 43.2754C845.641 43.4473 845.562 43.6842 845.562 43.9863C845.562 44.2988 845.664 44.5488 845.867 44.7363C846.07 44.9186 846.344 45.0098 846.688 45.0098C847.302 45.0098 847.784 44.8379 848.133 44.4941C848.487 44.1452 848.664 43.6712 848.664 43.0723V42.2676ZM857.969 43.2441H860.211C860.117 44.3223 859.724 45.1738 859.031 45.7988C858.339 46.4238 857.448 46.7363 856.359 46.7363C855.125 46.7363 854.156 46.3353 853.453 45.5332C852.755 44.7259 852.406 43.6113 852.406 42.1895C852.406 40.7728 852.763 39.6634 853.477 38.8613C854.195 38.054 855.182 37.6504 856.438 37.6504C857.536 37.6504 858.417 37.9421 859.078 38.5254C859.745 39.1087 860.117 39.9212 860.195 40.9629H857.938C857.875 40.5098 857.716 40.1634 857.461 39.9238C857.206 39.6843 856.87 39.5645 856.453 39.5645C855.891 39.5645 855.469 39.7858 855.188 40.2285C854.911 40.6712 854.773 41.3353 854.773 42.2207C854.773 43.0384 854.917 43.6686 855.203 44.1113C855.495 44.5488 855.911 44.7676 856.453 44.7676C856.875 44.7676 857.214 44.64 857.469 44.3848C857.724 44.1296 857.891 43.7494 857.969 43.2441ZM866.883 43.8691H869.148C868.919 44.765 868.456 45.4681 867.758 45.9785C867.065 46.4837 866.219 46.7363 865.219 46.7363C863.99 46.7363 863.016 46.3249 862.297 45.502C861.578 44.6738 861.219 43.554 861.219 42.1426C861.219 40.752 861.573 39.6556 862.281 38.8535C862.99 38.0514 863.958 37.6504 865.188 37.6504C866.49 37.6504 867.495 38.0462 868.203 38.8379C868.911 39.6244 869.266 40.7468 869.266 42.2051C869.266 42.3665 869.263 42.4889 869.258 42.5723C869.258 42.6504 869.253 42.7259 869.242 42.7988H863.57C863.602 43.4655 863.763 43.9681 864.055 44.3066C864.352 44.6452 864.776 44.8145 865.328 44.8145C865.719 44.8145 866.039 44.7389 866.289 44.5879C866.539 44.4316 866.737 44.1921 866.883 43.8691ZM863.57 41.3066H866.914C866.893 40.7337 866.74 40.2988 866.453 40.002C866.172 39.6999 865.766 39.5488 865.234 39.5488C864.74 39.5488 864.349 39.6999 864.062 40.002C863.781 40.304 863.617 40.7389 863.57 41.3066Z" fill="black"/>
<path d="M840 17.6465H797.026" stroke="black" stroke-width="3"/>
<path fill-rule="evenodd" clip-rule="evenodd" d="M802.5 25.1465V10.1465L787.5 17.6465L802.5 25.1465Z" fill="black"/>
<path d="M82.5001 82.5H54.0203" stroke="black" stroke-width="3"/>
<path fill-rule="evenodd" clip-rule="evenodd" d="M60 90V75L45 82.5L60 90Z" fill="black"/>
<path d="M45 75C45 90 45 90 45 90" stroke="black" stroke-width="3"/>
<path d="M44.9999 97.5H73.4797" stroke="black" stroke-width="3"/>
<path fill-rule="evenodd" clip-rule="evenodd" d="M67.5 90V105L82.5 97.5L67.5 90Z" fill="black"/>
<path d="M82.5 105C82.5 90 82.5 90 82.5 90" stroke="black" stroke-width="3"/>
<path d="M107.062 80.5605L105.234 78.7793L107.18 76.7637L109.055 78.5918C109.305 78.1231 109.496 77.5879 109.629 76.9863C109.762 76.3848 109.828 75.7285 109.828 75.0176C109.828 73.1192 109.402 71.6465 108.551 70.5996C107.699 69.5449 106.508 69.0176 104.977 69.0176C103.461 69.0176 102.281 69.541 101.438 70.5879C100.594 71.6348 100.172 73.1113 100.172 75.0176C100.172 76.916 100.594 78.3926 101.438 79.4473C102.281 80.4941 103.461 81.0176 104.977 81.0176C105.367 81.0176 105.734 80.9785 106.078 80.9004C106.43 80.8223 106.758 80.709 107.062 80.5605ZM109.559 82.916C108.973 83.3066 108.289 83.6035 107.508 83.8066C106.734 84.0098 105.891 84.1113 104.977 84.1113C102.398 84.1113 100.348 83.291 98.8242 81.6504C97.3086 80.0098 96.5508 77.7988 96.5508 75.0176C96.5508 72.2285 97.3086 70.0176 98.8242 68.3848C100.348 66.7442 102.398 65.9238 104.977 65.9238C107.555 65.9238 109.605 66.7442 111.129 68.3848C112.66 70.0254 113.426 72.2363 113.426 75.0176C113.426 76.2363 113.27 77.3535 112.957 78.3691C112.645 79.377 112.184 80.2598 111.574 81.0176L113.449 82.8105L111.527 84.8262L109.559 82.916Z" fill="black"/>
<path d="M158.941 83.6309L153.996 66.3691H157.676L160.629 78.5449L163.125 66.3691H166.91L169.406 78.5449L172.359 66.3691H176.004L171.07 83.6309H167.684L165.012 70.4121L162.328 83.6309H158.941Z" fill="black"/>
<path d="M218.525 83.6309V66.3691H231.053V69.3691H222.029V73.0488H230.279V76.002H222.029V80.4434H231.475V83.6309H218.525Z" fill="black"/>
<path d="M281.438 73.916H285.609C286.516 73.916 287.18 73.7324 287.602 73.3652C288.031 72.9981 288.246 72.4199 288.246 71.6309C288.246 70.8809 288.039 70.3145 287.625 69.9316C287.211 69.541 286.594 69.3457 285.773 69.3457H281.438V73.916ZM277.887 83.6309V66.3691H286.254C288.137 66.3692 289.531 66.7715 290.438 67.5762C291.344 68.3809 291.797 69.6113 291.797 71.2676C291.797 72.3223 291.574 73.2012 291.129 73.9043C290.691 74.6074 290.059 75.0879 289.23 75.3457C289.98 75.6113 290.512 76.0176 290.824 76.5645C291.145 77.1113 291.328 77.9629 291.375 79.1191L291.445 81.1582C291.445 81.1738 291.445 81.1973 291.445 81.2285C291.469 82.2598 291.691 82.8848 292.113 83.1035V83.6309H288.223C288.098 83.3887 288 83.0918 287.93 82.7402C287.867 82.3809 287.828 81.9551 287.812 81.4629L287.766 79.6465C287.727 78.5762 287.523 77.8535 287.156 77.4785C286.797 77.1035 286.145 76.916 285.199 76.916H281.438V83.6309H277.887Z" fill="black"/>
<path d="M343.242 83.6309V69.4512H338.121V66.3691H351.879V69.4512H346.793V83.6309H343.242Z" fill="black"/>
<path d="M407.068 83.6309H403.518V77.1973L397.248 66.3691H401.596L405.287 73.8105L408.697 66.3691H412.752L407.068 77.1973V83.6309Z" fill="black"/>
<path d="M458.086 66.1055H461.672V76.9336C461.672 78.2695 461.937 79.2461 462.469 79.8633C463 80.4727 463.844 80.7773 465 80.7773C466.172 80.7773 467.023 80.4727 467.555 79.8633C468.094 79.2539 468.363 78.2773 468.363 76.9336V66.1055H471.914V77.3203C471.914 79.4375 471.32 81.0625 470.133 82.1953C468.953 83.3281 467.25 83.8945 465.023 83.8945C462.781 83.8945 461.062 83.332 459.867 82.207C458.68 81.0742 458.086 79.4453 458.086 77.3203V66.1055Z" fill="black"/>
<path d="M523.225 83.6309V66.3691H526.775V83.6309H523.225Z" fill="black"/>
<path d="M580.184 75C580.184 76.8984 580.605 78.375 581.449 79.4297C582.293 80.4766 583.473 81 584.988 81C586.52 81 587.711 80.4766 588.562 79.4297C589.414 78.375 589.84 76.8984 589.84 75C589.84 73.1016 589.414 71.6289 588.562 70.582C587.711 69.5274 586.52 69 584.988 69C583.473 69 582.293 69.5235 581.449 70.5703C580.605 71.6172 580.184 73.0938 580.184 75ZM576.562 75C576.562 72.2109 577.32 70 578.836 68.3672C580.359 66.7266 582.41 65.9063 584.988 65.9062C587.566 65.9063 589.617 66.7266 591.141 68.3672C592.672 70.0078 593.437 72.2188 593.438 75C593.437 77.7813 592.672 79.9922 591.141 81.6328C589.617 83.2734 587.566 84.0938 584.988 84.0938C582.41 84.0938 580.359 83.2734 578.836 81.6328C577.32 79.9922 576.562 77.7813 576.562 75Z" fill="black"/>
<path d="M641.977 74.3613H645.41C646.34 74.3613 647.016 74.166 647.438 73.7754C647.859 73.377 648.07 72.7402 648.07 71.8652C648.07 71.0449 647.863 70.4238 647.449 70.002C647.035 69.5801 646.418 69.3692 645.598 69.3691H641.977V74.3613ZM641.953 77.4902V83.6309H638.402V66.3691H646.078C647.891 66.3692 649.262 66.8418 650.191 67.7871C651.129 68.7246 651.598 70.1035 651.598 71.9238C651.598 73.7051 651.141 75.0801 650.227 76.0488C649.312 77.0098 648.008 77.4902 646.312 77.4902H641.953Z" fill="black"/>
<path d="M709.248 63.9199V66.3691C709.178 66.3692 709.08 66.3652 708.955 66.3574C708.83 66.3496 708.744 66.3457 708.697 66.3457C707.908 66.3457 707.373 66.4981 707.092 66.8027C706.818 67.0996 706.682 67.7324 706.682 68.7012V71.5137C706.682 72.6699 706.506 73.4902 706.154 73.9746C705.803 74.459 705.17 74.8066 704.256 75.0176C705.17 75.2285 705.803 75.5723 706.154 76.0488C706.506 76.5254 706.682 77.3418 706.682 78.498V81.3223C706.682 82.2832 706.818 82.9121 707.092 83.209C707.365 83.5059 707.9 83.6543 708.697 83.6543C708.744 83.6543 708.83 83.6504 708.955 83.6426C709.08 83.6348 709.178 83.6309 709.248 83.6309V86.0801C709.139 86.0801 708.986 86.084 708.791 86.0918C708.596 86.0996 708.451 86.1035 708.357 86.1035C707.576 86.1035 706.924 86.0566 706.4 85.9629C705.877 85.8691 705.432 85.7246 705.064 85.5293C704.619 85.2637 704.303 84.9043 704.115 84.4512C703.936 84.0059 703.846 83.2285 703.846 82.1191V79.166C703.846 78.0957 703.646 77.3379 703.248 76.8926C702.85 76.4395 702.178 76.2129 701.232 76.2129C701.186 76.2129 701.107 76.2168 700.998 76.2246C700.889 76.2324 700.807 76.2363 700.752 76.2363V73.7871C700.807 73.7871 700.889 73.791 700.998 73.7988C701.107 73.8066 701.186 73.8106 701.232 73.8105C702.17 73.8106 702.838 73.584 703.236 73.1309C703.643 72.6777 703.846 71.9121 703.846 70.834V67.9043C703.846 66.7871 703.936 66.002 704.115 65.5488C704.303 65.0957 704.619 64.7363 705.064 64.4707C705.432 64.2754 705.877 64.1309 706.4 64.0371C706.924 63.9434 707.576 63.8965 708.357 63.8965C708.451 63.8965 708.596 63.9004 708.791 63.9082C708.986 63.916 709.139 63.9199 709.248 63.9199ZM703.096 93.9668H709.014V96.4629H706.26V113.842H709.014V116.338H703.096V93.9668Z" fill="black"/>
<path d="M760.752 63.9082H761.549C762.408 63.9082 763.1 63.9551 763.623 64.0488C764.146 64.1426 764.584 64.291 764.936 64.4941C765.381 64.7442 765.693 65.1035 765.873 65.5723C766.061 66.0332 766.154 66.8067 766.154 67.8926V70.8457C766.154 71.916 766.354 72.6777 766.752 73.1309C767.15 73.5762 767.822 73.7988 768.768 73.7988C768.814 73.7988 768.893 73.7949 769.002 73.7871C769.111 73.7793 769.193 73.7754 769.248 73.7754V76.2246H768.814C767.838 76.2246 767.15 76.4434 766.752 76.8809C766.354 77.3184 766.154 78.0762 766.154 79.1543V82.1074C766.154 83.2246 766.061 84.0098 765.873 84.4629C765.693 84.916 765.381 85.2676 764.936 85.5176C764.568 85.7129 764.123 85.8574 763.6 85.9512C763.076 86.0449 762.424 86.0918 761.643 86.0918C761.549 86.0918 761.404 86.0879 761.209 86.0801C761.014 86.0723 760.861 86.0684 760.752 86.0684V83.6191C760.822 83.6191 760.92 83.623 761.045 83.6309C761.17 83.6387 761.256 83.6426 761.303 83.6426C762.092 83.6426 762.623 83.4902 762.896 83.1855C763.178 82.8887 763.318 82.2637 763.318 81.3105V78.5098C763.318 77.3379 763.494 76.5137 763.846 76.0371C764.197 75.5527 764.83 75.209 765.744 75.0059C764.83 74.7949 764.197 74.4473 763.846 73.9629C763.494 73.4785 763.318 72.6582 763.318 71.502V68.666C763.318 67.7129 763.178 67.0879 762.896 66.791C762.623 66.4863 762.092 66.334 761.303 66.334C761.256 66.334 761.17 66.3379 761.045 66.3457C760.92 66.3535 760.822 66.3574 760.752 66.3574V63.9082ZM767.01 93.9551V116.326H761.08V113.83H763.846V96.4512H761.08V93.9551H767.01Z" fill="black"/>
<path d="M823.799 62.877H826.213V86.877H823.799V62.877ZM827.104 113.443L821.291 93.5098H822.873L828.709 113.443H827.104Z" fill="black"/>
<path d="M22.4308 134.492H19.9421C19.8967 134.17 19.8039 133.884 19.6637 133.634C19.5236 133.38 19.3436 133.165 19.1239 132.987C18.9042 132.808 18.6504 132.672 18.3626 132.577C18.0785 132.483 17.7698 132.435 17.4364 132.435C16.8342 132.435 16.3095 132.585 15.8626 132.884C15.4156 133.18 15.069 133.612 14.8228 134.18C14.5766 134.744 14.4535 135.43 14.4535 136.237C14.4535 137.066 14.5766 137.763 14.8228 138.327C15.0728 138.892 15.4213 139.318 15.8683 139.606C16.3152 139.894 16.8323 140.038 17.4194 140.038C17.7489 140.038 18.0539 139.994 18.3342 139.907C18.6183 139.82 18.8701 139.693 19.0898 139.526C19.3095 139.356 19.4914 139.149 19.6353 138.907C19.783 138.665 19.8853 138.388 19.9421 138.077L22.4308 138.089C22.3664 138.623 22.2054 139.138 21.9478 139.634C21.694 140.127 21.3512 140.568 20.9194 140.958C20.4914 141.344 19.98 141.651 19.3853 141.879C18.7944 142.102 18.1258 142.214 17.3796 142.214C16.3417 142.214 15.4137 141.979 14.5955 141.509C13.7811 141.04 13.1372 140.36 12.6637 139.469C12.194 138.579 11.9592 137.502 11.9592 136.237C11.9592 134.968 12.1978 133.888 12.6751 132.998C13.1523 132.108 13.8001 131.43 14.6183 130.964C15.4364 130.494 16.3569 130.259 17.3796 130.259C18.0539 130.259 18.6789 130.354 19.2546 130.543C19.8342 130.733 20.3474 131.009 20.7944 131.373C21.2414 131.733 21.605 132.174 21.8853 132.697C22.1694 133.219 22.3512 133.818 22.4308 134.492ZM26.6381 142.219C26.0813 142.219 25.5851 142.123 25.1495 141.93C24.7139 141.733 24.3692 141.443 24.1154 141.06C23.8654 140.674 23.7404 140.193 23.7404 139.617C23.7404 139.132 23.8294 138.725 24.0075 138.396C24.1855 138.066 24.4279 137.801 24.7347 137.6C25.0415 137.399 25.39 137.248 25.7802 137.146C26.1741 137.043 26.587 136.971 27.0188 136.93C27.5264 136.877 27.9355 136.827 28.2461 136.782C28.5567 136.733 28.7821 136.661 28.9222 136.566C29.0624 136.471 29.1325 136.331 29.1325 136.146V136.112C29.1325 135.752 29.0188 135.473 28.7915 135.276C28.5681 135.079 28.2499 134.981 27.837 134.981C27.4014 134.981 27.0548 135.077 26.7972 135.271C26.5397 135.46 26.3692 135.699 26.2859 135.987L24.0472 135.805C24.1609 135.274 24.3844 134.816 24.7177 134.43C25.051 134.04 25.4809 133.74 26.0075 133.532C26.5378 133.32 27.1514 133.214 27.8484 133.214C28.3332 133.214 28.7972 133.271 29.2404 133.384C29.6874 133.498 30.0832 133.674 30.4279 133.913C30.7764 134.151 31.051 134.458 31.2518 134.833C31.4525 135.204 31.5529 135.649 31.5529 136.168V142.055H29.2575V140.844H29.1893C29.0491 141.117 28.8616 141.358 28.6268 141.566C28.3919 141.771 28.1097 141.932 27.7802 142.049C27.4506 142.163 27.07 142.219 26.6381 142.219ZM27.3313 140.549C27.6874 140.549 28.0018 140.479 28.2745 140.339C28.5472 140.195 28.7612 140.002 28.9165 139.759C29.0719 139.517 29.1495 139.242 29.1495 138.935V138.009C29.0737 138.058 28.9696 138.104 28.837 138.146C28.7082 138.183 28.5624 138.219 28.3995 138.254C28.2366 138.284 28.0737 138.312 27.9109 138.339C27.748 138.362 27.6003 138.382 27.4677 138.401C27.1836 138.443 26.9355 138.509 26.7234 138.6C26.5112 138.691 26.3465 138.814 26.229 138.969C26.1116 139.121 26.0529 139.31 26.0529 139.538C26.0529 139.867 26.1722 140.119 26.4109 140.293C26.6533 140.464 26.9601 140.549 27.3313 140.549ZM33.4308 145.327V133.327H35.8171V134.793H35.9251C36.0311 134.558 36.1845 134.32 36.3853 134.077C36.5898 133.831 36.855 133.627 37.1808 133.464C37.5103 133.297 37.9194 133.214 38.408 133.214C39.0444 133.214 39.6315 133.38 40.1694 133.714C40.7073 134.043 41.1372 134.541 41.4592 135.208C41.7811 135.871 41.9421 136.702 41.9421 137.702C41.9421 138.676 41.7849 139.498 41.4705 140.168C41.1599 140.835 40.7357 141.341 40.1978 141.685C39.6637 142.026 39.0652 142.197 38.4023 142.197C37.9326 142.197 37.533 142.119 37.2035 141.964C36.8777 141.808 36.6107 141.613 36.4023 141.379C36.194 141.14 36.0349 140.899 35.9251 140.657H35.8512V145.327H33.4308ZM35.8001 137.691C35.8001 138.21 35.872 138.663 36.016 139.049C36.1599 139.435 36.3683 139.737 36.641 139.952C36.9137 140.165 37.2451 140.271 37.6353 140.271C38.0292 140.271 38.3626 140.163 38.6353 139.947C38.908 139.727 39.1145 139.424 39.2546 139.038C39.3986 138.647 39.4705 138.199 39.4705 137.691C39.4705 137.187 39.4005 136.744 39.2603 136.362C39.1201 135.979 38.9137 135.68 38.641 135.464C38.3683 135.248 38.033 135.14 37.6353 135.14C37.2414 135.14 36.908 135.244 36.6353 135.452C36.3664 135.661 36.1599 135.956 36.016 136.339C35.872 136.721 35.8001 137.172 35.8001 137.691ZM50.8171 135.816L48.6012 135.952C48.5633 135.763 48.4819 135.593 48.3569 135.441C48.2319 135.286 48.0671 135.163 47.8626 135.072C47.6618 134.977 47.4213 134.93 47.141 134.93C46.766 134.93 46.4497 135.009 46.1921 135.168C45.9345 135.324 45.8058 135.532 45.8058 135.793C45.8058 136.002 45.8891 136.178 46.0558 136.322C46.2224 136.466 46.5084 136.581 46.9137 136.668L48.4933 136.987C49.3417 137.161 49.9743 137.441 50.391 137.827C50.8076 138.214 51.016 138.721 51.016 139.35C51.016 139.922 50.8474 140.424 50.5103 140.856C50.177 141.288 49.7186 141.625 49.1353 141.867C48.5558 142.106 47.8872 142.225 47.1296 142.225C45.9743 142.225 45.0539 141.985 44.3683 141.504C43.6864 141.019 43.2868 140.36 43.1694 139.526L45.5501 139.401C45.622 139.754 45.7963 140.022 46.0728 140.208C46.3493 140.39 46.7035 140.481 47.1353 140.481C47.5595 140.481 47.9005 140.399 48.158 140.237C48.4194 140.07 48.552 139.856 48.5558 139.594C48.552 139.375 48.4592 139.195 48.2773 139.055C48.0955 138.911 47.8152 138.801 47.4364 138.725L45.9251 138.424C45.0728 138.254 44.4383 137.958 44.0217 137.538C43.6088 137.117 43.4023 136.581 43.4023 135.93C43.4023 135.369 43.5539 134.886 43.8569 134.481C44.1637 134.076 44.5936 133.763 45.1467 133.543C45.7035 133.324 46.355 133.214 47.1012 133.214C48.2035 133.214 49.0709 133.447 49.7035 133.913C50.3398 134.379 50.7111 135.013 50.8171 135.816ZM56.2887 142.055V130.418H58.7489V140.026H63.7376V142.055H56.2887ZM69.2646 142.225C68.382 142.225 67.6187 142.038 66.9748 141.663C66.3346 141.284 65.8403 140.757 65.4918 140.083C65.1433 139.405 64.9691 138.619 64.9691 137.725C64.9691 136.824 65.1433 136.036 65.4918 135.362C65.8403 134.683 66.3346 134.157 66.9748 133.782C67.6187 133.403 68.382 133.214 69.2646 133.214C70.1471 133.214 70.9085 133.403 71.5487 133.782C72.1926 134.157 72.6888 134.683 73.0373 135.362C73.3858 136.036 73.56 136.824 73.56 137.725C73.56 138.619 73.3858 139.405 73.0373 140.083C72.6888 140.757 72.1926 141.284 71.5487 141.663C70.9085 142.038 70.1471 142.225 69.2646 142.225ZM69.2759 140.35C69.6774 140.35 70.0127 140.237 70.2816 140.009C70.5505 139.778 70.7532 139.464 70.8896 139.066C71.0297 138.668 71.0998 138.216 71.0998 137.708C71.0998 137.201 71.0297 136.748 70.8896 136.35C70.7532 135.952 70.5505 135.638 70.2816 135.407C70.0127 135.176 69.6774 135.06 69.2759 135.06C68.8706 135.06 68.5297 135.176 68.2532 135.407C67.9805 135.638 67.774 135.952 67.6339 136.35C67.4975 136.748 67.4293 137.201 67.4293 137.708C67.4293 138.216 67.4975 138.668 67.6339 139.066C67.774 139.464 67.9805 139.778 68.2532 140.009C68.5297 140.237 68.8706 140.35 69.2759 140.35ZM79.0771 142.225C78.1831 142.225 77.4142 142.036 76.7702 141.657C76.1301 141.274 75.6377 140.744 75.293 140.066C74.9521 139.388 74.7816 138.608 74.7816 137.725C74.7816 136.831 74.954 136.047 75.2987 135.373C75.6471 134.695 76.1415 134.166 76.7816 133.788C77.4218 133.405 78.1831 133.214 79.0657 133.214C79.8271 133.214 80.4937 133.352 81.0657 133.629C81.6377 133.905 82.0903 134.293 82.4237 134.793C82.757 135.293 82.9407 135.88 82.9748 136.555H80.6907C80.6263 136.119 80.4558 135.769 80.1793 135.504C79.9066 135.235 79.5487 135.1 79.1055 135.1C78.7305 135.1 78.4028 135.202 78.1225 135.407C77.846 135.608 77.6301 135.901 77.4748 136.288C77.3195 136.674 77.2418 137.142 77.2418 137.691C77.2418 138.248 77.3176 138.721 77.4691 139.112C77.6244 139.502 77.8422 139.799 78.1225 140.004C78.4028 140.208 78.7305 140.31 79.1055 140.31C79.382 140.31 79.6301 140.254 79.8498 140.14C80.0733 140.026 80.257 139.862 80.4009 139.646C80.5487 139.426 80.6452 139.163 80.6907 138.856H82.9748C82.9369 139.522 82.7551 140.11 82.4293 140.617C82.1074 141.121 81.6623 141.515 81.0941 141.799C80.5259 142.083 79.8536 142.225 79.0771 142.225ZM86.7177 139.543L86.7234 136.64H87.0756L89.8711 133.327H92.6495L88.8938 137.714H88.32L86.7177 139.543ZM84.5245 142.055V130.418H86.945V142.055H84.5245ZM89.979 142.055L87.4109 138.254L89.0245 136.543L92.8143 142.055H89.979Z" fill="black"/>
<path fill-rule="evenodd" clip-rule="evenodd" d="M26.25 146.25L15 161.25H22.5V168.75H30V161.25H37.5L26.25 146.25ZM25.2188 150.469H27.25L30.375 159.094H28.5L27.9062 157.312H24.5625L24 159.094H22.125L25.2188 150.469ZM26.25 152.188L25.0312 155.844H27.4375L26.25 152.188Z" fill="black"/>
<path d="M119.971 129.826L117.58 137.174H122.373L119.971 129.826ZM117.908 126.369H122.01L128.232 143.631H124.506L123.334 140.08H116.643L115.506 143.631H111.768L117.908 126.369Z" fill="black"/>
<path d="M172.98 138.293H176.484C176.617 139.238 177.004 139.941 177.645 140.402C178.285 140.855 179.211 141.082 180.422 141.082C181.453 141.082 182.23 140.898 182.754 140.531C183.277 140.164 183.539 139.621 183.539 138.902C183.539 137.855 182.035 136.988 179.027 136.301C178.988 136.293 178.953 136.285 178.922 136.277C178.844 136.262 178.723 136.234 178.559 136.195C176.949 135.844 175.801 135.449 175.113 135.012C174.504 134.621 174.039 134.098 173.719 133.441C173.398 132.777 173.238 131.996 173.238 131.098C173.238 129.418 173.809 128.133 174.949 127.242C176.09 126.344 177.738 125.895 179.895 125.895C181.91 125.895 183.484 126.371 184.617 127.324C185.758 128.277 186.359 129.621 186.422 131.355H183.012C182.949 130.52 182.629 129.883 182.051 129.445C181.473 129.008 180.648 128.789 179.578 128.789C178.648 128.789 177.93 128.973 177.422 129.34C176.922 129.699 176.672 130.215 176.672 130.887C176.672 131.801 177.652 132.484 179.613 132.938C180.145 133.063 180.559 133.16 180.855 133.23C182.113 133.551 183.004 133.801 183.527 133.98C184.059 134.16 184.52 134.359 184.91 134.578C185.613 134.969 186.141 135.488 186.492 136.137C186.844 136.777 187.02 137.547 187.02 138.445C187.02 140.242 186.414 141.637 185.203 142.629C183.992 143.613 182.285 144.105 180.082 144.105C177.91 144.105 176.207 143.602 174.973 142.594C173.738 141.586 173.074 140.152 172.98 138.293Z" fill="black"/>
<path d="M236.162 140.514H239.01C240.658 140.514 241.85 140.084 242.584 139.225C243.326 138.357 243.697 136.955 243.697 135.018C243.697 133.088 243.353 131.67 242.666 130.764C241.978 129.857 240.904 129.404 239.443 129.404H236.162V140.514ZM232.682 143.631V126.369H239.443C242.092 126.369 244.064 127.084 245.361 128.514C246.666 129.943 247.318 132.111 247.318 135.018C247.318 136.596 247.076 137.986 246.592 139.189C246.115 140.393 245.42 141.361 244.506 142.096C243.818 142.643 243.037 143.037 242.162 143.279C241.287 143.514 240.061 143.631 238.482 143.631H232.682Z" fill="black"/>
<path d="M293.977 143.631V126.369H306.023V129.369H297.48V133.283H304.969V136.283H297.48V143.631H293.977Z" fill="black"/>
<path d="M365.18 141.574C364.539 142.441 363.809 143.078 362.988 143.484C362.176 143.891 361.219 144.094 360.117 144.094C357.703 144.094 355.746 143.258 354.246 141.586C352.754 139.906 352.008 137.703 352.008 134.977C352.008 132.227 352.754 130.027 354.246 128.379C355.738 126.73 357.727 125.906 360.211 125.906C362.375 125.906 364.141 126.426 365.508 127.465C366.875 128.496 367.687 129.918 367.945 131.73H364.324C364.105 130.832 363.656 130.148 362.977 129.68C362.305 129.211 361.426 128.977 360.34 128.977C358.895 128.977 357.758 129.508 356.93 130.57C356.109 131.625 355.699 133.086 355.699 134.953C355.699 136.828 356.129 138.297 356.988 139.359C357.848 140.422 359.027 140.953 360.527 140.953C361.652 140.953 362.594 140.621 363.352 139.957C364.109 139.293 364.578 138.383 364.758 137.227H360.844V134.273H367.992V143.613H365.613L365.18 141.574Z" fill="black"/>
<path d="M412.863 143.631V126.369H416.438V132.803H423.562V126.369H427.137V143.631H423.562V135.979H416.438V143.631H412.863Z" fill="black"/>
<path d="M474.48 136.957H477.914V139.043C477.914 139.645 478.094 140.105 478.453 140.426C478.812 140.738 479.328 140.895 480 140.895C480.734 140.895 481.246 140.703 481.535 140.32C481.824 139.938 481.969 139.219 481.969 138.164V126.129H485.52V138.328C485.52 139.422 485.453 140.227 485.32 140.742C485.195 141.25 484.984 141.699 484.688 142.09C484.234 142.668 483.613 143.109 482.824 143.414C482.035 143.719 481.109 143.871 480.047 143.871C479.07 143.871 478.207 143.738 477.457 143.473C476.707 143.207 476.082 142.813 475.582 142.289C475.184 141.867 474.898 141.398 474.727 140.883C474.563 140.359 474.48 139.5 474.48 138.305V136.957Z" fill="black"/>
<path d="M532.324 143.631V126.369H535.875V133.459L542.613 126.369H547.055L540.164 133.354L547.676 143.631H543.34L537.715 135.732L535.875 137.561V143.631H532.324Z" fill="black"/>
<path d="M594.012 143.631V126.369H597.562V140.443H605.988V143.631H594.012Z" fill="black"/>
<path d="M143.15 203.631V200.631L152.537 189.498H143.338V186.369H156.85V189.369L147.439 200.514H156.639V203.631H143.15Z" fill="black"/>
<path d="M202.371 203.631L207.797 194.818L202.371 186.369H206.473L210 192.404L213.504 186.369H217.629L212.203 194.795L217.629 203.631H213.527L210 197.654L206.473 203.631H202.371Z" fill="black"/>
<path d="M277.875 197.684C277.742 199.645 276.984 201.203 275.602 202.359C274.227 203.516 272.43 204.094 270.211 204.094C267.656 204.094 265.668 203.297 264.246 201.703C262.832 200.109 262.125 197.875 262.125 195C262.125 192.063 262.848 189.813 264.293 188.25C265.738 186.688 267.816 185.906 270.527 185.906C272.73 185.906 274.469 186.445 275.742 187.523C277.023 188.594 277.727 190.109 277.852 192.07H274.348C274.199 191.094 273.801 190.352 273.152 189.844C272.504 189.328 271.629 189.07 270.527 189.07C268.965 189.07 267.777 189.574 266.965 190.582C266.152 191.59 265.746 193.063 265.746 195C265.746 196.875 266.148 198.324 266.953 199.348C267.766 200.371 268.918 200.883 270.41 200.883C271.488 200.883 272.371 200.609 273.059 200.062C273.746 199.508 274.191 198.715 274.395 197.684H277.875Z" fill="black"/>
<path d="M328.336 203.631L322.383 186.369H326.32L329.988 199.283L333.727 186.369H337.617L331.734 203.631H328.336Z" fill="black"/>
<path d="M386.32 200.514H390.527C391.52 200.514 392.242 200.334 392.695 199.975C393.148 199.615 393.375 199.049 393.375 198.275C393.375 197.471 393.152 196.893 392.707 196.541C392.262 196.182 391.527 196.002 390.504 196.002H386.32V200.514ZM386.32 193.049H390.375C391.25 193.049 391.891 192.9 392.297 192.604C392.703 192.299 392.906 191.822 392.906 191.174C392.906 190.541 392.707 190.084 392.309 189.803C391.918 189.514 391.266 189.369 390.352 189.369H386.32V193.049ZM382.922 203.631V186.369H391.055C392.82 186.369 394.164 186.744 395.086 187.494C396.016 188.236 396.48 189.318 396.48 190.74C396.48 191.615 396.309 192.346 395.965 192.932C395.621 193.518 395.105 193.971 394.418 194.291C395.309 194.65 395.973 195.17 396.41 195.85C396.855 196.521 397.078 197.361 397.078 198.369C397.078 200.049 396.531 201.346 395.438 202.26C394.344 203.174 392.793 203.631 390.785 203.631H382.922Z" fill="black"/>
<path d="M442.887 203.631V186.369H446.602L453.609 198.229V186.369H457.113V203.631H453.445L446.391 191.771V203.631H442.887Z" fill="black"/>
<path d="M501.328 203.631V186.369H506.578L510.012 199.506L513.398 186.369H518.672V203.631H515.344V189.709L511.84 203.631H508.207L504.656 189.709V203.631H501.328Z" fill="black"/>
<path d="M658.225 134.654V131.104H661.775V134.654H658.225ZM658.225 143.631V140.104H661.775V143.631H658.225ZM658.248 164.654V161.104H661.775V164.654H658.248ZM658.248 177.686V176.314C658.904 176.127 659.389 175.838 659.701 175.447C660.014 175.057 660.17 174.549 660.17 173.924V173.631H658.225V170.104H661.775V173.49C661.775 174.662 661.479 175.6 660.885 176.303C660.291 177.014 659.412 177.475 658.248 177.686Z" fill="black"/>
<path d="M720.785 126.779H723.035V133.33H720.785V126.779ZM716.965 126.779H719.215V133.33H716.965V126.779ZM718.887 156.779H721.137V163.33H718.887V156.779Z" fill="black"/>
<path d="M772.5 140.609V129.102H780.852V131.102H774.836V133.555H780.336V135.523H774.836V138.484H781.133V140.609H772.5ZM782.742 140.609V132.117H784.969V133.125C785.286 132.714 785.661 132.406 786.094 132.203C786.526 131.995 787.008 131.891 787.539 131.891C788.477 131.891 789.177 132.135 789.641 132.625C790.109 133.109 790.344 133.841 790.344 134.82V140.609H788.07V135.477C788.07 134.867 787.966 134.432 787.758 134.172C787.555 133.911 787.221 133.781 786.758 133.781C786.221 133.781 785.797 133.943 785.484 134.266C785.172 134.583 785.016 135.018 785.016 135.57V140.609H782.742ZM796.078 140.672C795.87 140.677 795.62 140.685 795.328 140.695C795.042 140.711 794.859 140.719 794.781 140.719C793.911 140.719 793.315 140.557 792.992 140.234C792.674 139.906 792.516 139.263 792.516 138.305V133.711H791.391V132.117H792.516V129.797H794.766V132.117H796.078V133.711H794.766V138.414C794.766 138.638 794.815 138.786 794.914 138.859C795.013 138.927 795.216 138.961 795.523 138.961H796.078V140.672ZM802.633 138.031H804.898C804.669 138.927 804.206 139.63 803.508 140.141C802.815 140.646 801.969 140.898 800.969 140.898C799.74 140.898 798.766 140.487 798.047 139.664C797.328 138.836 796.969 137.716 796.969 136.305C796.969 134.914 797.323 133.818 798.031 133.016C798.74 132.214 799.708 131.813 800.938 131.812C802.24 131.813 803.245 132.208 803.953 133C804.661 133.786 805.016 134.909 805.016 136.367C805.016 136.529 805.013 136.651 805.008 136.734C805.008 136.812 805.003 136.888 804.992 136.961H799.32C799.352 137.628 799.513 138.13 799.805 138.469C800.102 138.807 800.526 138.977 801.078 138.977C801.469 138.977 801.789 138.901 802.039 138.75C802.289 138.594 802.487 138.354 802.633 138.031ZM799.32 135.469H802.664C802.643 134.896 802.49 134.461 802.203 134.164C801.922 133.862 801.516 133.711 800.984 133.711C800.49 133.711 800.099 133.862 799.812 134.164C799.531 134.466 799.367 134.901 799.32 135.469ZM806.523 140.609V132.117H808.633V133.57C808.93 132.987 809.276 132.56 809.672 132.289C810.068 132.013 810.539 131.875 811.086 131.875C811.174 131.875 811.242 131.878 811.289 131.883C811.341 131.883 811.383 131.885 811.414 131.891L811.422 134.195H810.664C810.044 134.195 809.578 134.357 809.266 134.68C808.953 135.003 808.797 135.482 808.797 136.117V140.609H806.523Z" fill="black"/>
<path fill-rule="evenodd" clip-rule="evenodd" d="M787.5 172.5V157.5L772.5 165L787.5 172.5Z" fill="black"/>
<path d="M810 150V165H780" stroke="black" stroke-width="3"/>
<path d="M20.1364 191.906C20.0909 191.447 19.8958 191.091 19.5511 190.837C19.2064 190.584 18.7386 190.457 18.1477 190.457C17.7462 190.457 17.4072 190.513 17.1307 190.627C16.8542 190.737 16.642 190.89 16.4943 191.087C16.3504 191.284 16.2784 191.508 16.2784 191.758C16.2708 191.966 16.3144 192.148 16.4091 192.303C16.5076 192.459 16.642 192.593 16.8125 192.707C16.983 192.817 17.1799 192.913 17.4034 192.996C17.6269 193.076 17.8655 193.144 18.1193 193.201L19.1648 193.451C19.6723 193.565 20.1383 193.716 20.5625 193.906C20.9867 194.095 21.3542 194.328 21.6648 194.604C21.9754 194.881 22.2159 195.207 22.3864 195.582C22.5606 195.957 22.6496 196.387 22.6534 196.871C22.6496 197.584 22.4678 198.201 22.108 198.724C21.7519 199.243 21.2367 199.646 20.5625 199.934C19.892 200.218 19.0833 200.36 18.1364 200.36C17.197 200.36 16.3788 200.216 15.6818 199.928C14.9886 199.64 14.447 199.214 14.0568 198.65C13.6705 198.082 13.4678 197.379 13.4489 196.542H15.8295C15.8561 196.932 15.9678 197.258 16.1648 197.519C16.3655 197.777 16.6326 197.972 16.9659 198.104C17.303 198.233 17.6837 198.298 18.108 198.298C18.5246 198.298 18.8864 198.237 19.1932 198.116C19.5038 197.995 19.7443 197.826 19.9148 197.61C20.0852 197.394 20.1705 197.146 20.1705 196.866C20.1705 196.604 20.0928 196.385 19.9375 196.207C19.786 196.029 19.5625 195.877 19.267 195.752C18.9754 195.627 18.6174 195.513 18.1932 195.411L16.9261 195.093C15.9451 194.854 15.1705 194.481 14.6023 193.974C14.0341 193.466 13.7519 192.782 13.7557 191.923C13.7519 191.218 13.9394 190.603 14.3182 190.076C14.7008 189.549 15.2254 189.138 15.892 188.843C16.5587 188.548 17.3163 188.4 18.1648 188.4C19.0284 188.4 19.7822 188.548 20.4261 188.843C21.0739 189.138 21.5777 189.549 21.9375 190.076C22.2973 190.603 22.483 191.212 22.4943 191.906H20.1364ZM26.6832 195.15V200.195H24.2628V188.559H26.6151V193.008H26.7173C26.9143 192.493 27.2325 192.089 27.6719 191.798C28.1113 191.502 28.6624 191.354 29.3253 191.354C29.9313 191.354 30.4598 191.487 30.9105 191.752C31.3651 192.013 31.7173 192.39 31.9673 192.883C32.2211 193.371 32.3461 193.957 32.3423 194.638V200.195H29.9219V195.07C29.9257 194.532 29.7893 194.114 29.5128 193.815C29.2401 193.515 28.8575 193.366 28.3651 193.366C28.0355 193.366 27.7438 193.436 27.4901 193.576C27.2401 193.716 27.0431 193.921 26.8991 194.19C26.759 194.455 26.687 194.775 26.6832 195.15ZM34.2472 200.195V191.468H36.6676V200.195H34.2472ZM35.4631 190.343C35.1032 190.343 34.7945 190.224 34.5369 189.985C34.2831 189.743 34.1562 189.453 34.1562 189.116C34.1562 188.782 34.2831 188.496 34.5369 188.258C34.7945 188.015 35.1032 187.894 35.4631 187.894C35.8229 187.894 36.1297 188.015 36.3835 188.258C36.6411 188.496 36.7699 188.782 36.7699 189.116C36.7699 189.453 36.6411 189.743 36.3835 189.985C36.1297 190.224 35.8229 190.343 35.4631 190.343ZM43.2997 191.468V193.286H37.9134V191.468H43.2997ZM39.1463 200.195V190.837C39.1463 190.205 39.2694 189.68 39.5156 189.263C39.7656 188.847 40.1065 188.534 40.5384 188.326C40.9702 188.118 41.4607 188.013 42.0099 188.013C42.3812 188.013 42.7202 188.042 43.027 188.099C43.3376 188.156 43.5687 188.207 43.7202 188.252L43.2884 190.07C43.1937 190.04 43.0762 190.012 42.9361 189.985C42.7997 189.959 42.6596 189.945 42.5156 189.945C42.1596 189.945 41.9115 190.029 41.7713 190.195C41.6312 190.358 41.5611 190.587 41.5611 190.883V200.195H39.1463ZM49.4205 191.468V193.286H44.1648V191.468H49.4205ZM45.358 189.377H47.7784V197.513C47.7784 197.737 47.8125 197.911 47.8807 198.036C47.9489 198.157 48.0436 198.243 48.1648 198.292C48.2898 198.341 48.4337 198.366 48.5966 198.366C48.7102 198.366 48.8239 198.356 48.9375 198.337C49.0511 198.315 49.1383 198.298 49.1989 198.286L49.5795 200.087C49.4583 200.125 49.2879 200.169 49.0682 200.218C48.8485 200.271 48.5814 200.303 48.267 200.315C47.6837 200.337 47.1723 200.26 46.733 200.082C46.2973 199.904 45.9583 199.627 45.7159 199.252C45.4735 198.877 45.3542 198.404 45.358 197.832V189.377Z" fill="black"/>
<path fill-rule="evenodd" clip-rule="evenodd" d="M27.25 207.125L16 222.125H23.5V229.625H31V222.125H38.5L27.25 207.125Z" stroke="black" stroke-width="2"/>
<path d="M747.636 191.906C747.591 191.447 747.396 191.091 747.051 190.837C746.706 190.584 746.239 190.457 745.648 190.457C745.246 190.457 744.907 190.513 744.631 190.627C744.354 190.737 744.142 190.89 743.994 191.087C743.85 191.284 743.778 191.508 743.778 191.758C743.771 191.966 743.814 192.148 743.909 192.303C744.008 192.459 744.142 192.593 744.312 192.707C744.483 192.817 744.68 192.913 744.903 192.996C745.127 193.076 745.366 193.144 745.619 193.201L746.665 193.451C747.172 193.565 747.638 193.716 748.062 193.906C748.487 194.095 748.854 194.328 749.165 194.604C749.475 194.881 749.716 195.207 749.886 195.582C750.061 195.957 750.15 196.387 750.153 196.871C750.15 197.584 749.968 198.201 749.608 198.724C749.252 199.243 748.737 199.646 748.062 199.934C747.392 200.218 746.583 200.36 745.636 200.36C744.697 200.36 743.879 200.216 743.182 199.928C742.489 199.64 741.947 199.214 741.557 198.65C741.17 198.082 740.968 197.379 740.949 196.542H743.33C743.356 196.932 743.468 197.258 743.665 197.519C743.866 197.777 744.133 197.972 744.466 198.104C744.803 198.233 745.184 198.298 745.608 198.298C746.025 198.298 746.386 198.237 746.693 198.116C747.004 197.995 747.244 197.826 747.415 197.61C747.585 197.394 747.67 197.146 747.67 196.866C747.67 196.604 747.593 196.385 747.438 196.207C747.286 196.029 747.063 195.877 746.767 195.752C746.475 195.627 746.117 195.513 745.693 195.411L744.426 195.093C743.445 194.854 742.67 194.481 742.102 193.974C741.534 193.466 741.252 192.782 741.256 191.923C741.252 191.218 741.439 190.603 741.818 190.076C742.201 189.549 742.725 189.138 743.392 188.843C744.059 188.548 744.816 188.4 745.665 188.4C746.528 188.4 747.282 188.548 747.926 188.843C748.574 189.138 749.078 189.549 749.438 190.076C749.797 190.603 749.983 191.212 749.994 191.906H747.636ZM754.183 195.15V200.195H751.763V188.559H754.115V193.008H754.217C754.414 192.493 754.732 192.089 755.172 191.798C755.611 191.502 756.162 191.354 756.825 191.354C757.431 191.354 757.96 191.487 758.411 191.752C758.865 192.013 759.217 192.39 759.467 192.883C759.721 193.371 759.846 193.957 759.842 194.638V200.195H757.422V195.07C757.426 194.532 757.289 194.114 757.013 193.815C756.74 193.515 756.357 193.366 755.865 193.366C755.536 193.366 755.244 193.436 754.99 193.576C754.74 193.716 754.543 193.921 754.399 194.19C754.259 194.455 754.187 194.775 754.183 195.15ZM761.747 200.195V191.468H764.168V200.195H761.747ZM762.963 190.343C762.603 190.343 762.295 190.224 762.037 189.985C761.783 189.743 761.656 189.453 761.656 189.116C761.656 188.782 761.783 188.496 762.037 188.258C762.295 188.015 762.603 187.894 762.963 187.894C763.323 187.894 763.63 188.015 763.884 188.258C764.141 188.496 764.27 188.782 764.27 189.116C764.27 189.453 764.141 189.743 763.884 189.985C763.63 190.224 763.323 190.343 762.963 190.343ZM770.8 191.468V193.286H765.413V191.468H770.8ZM766.646 200.195V190.837C766.646 190.205 766.769 189.68 767.016 189.263C767.266 188.847 767.607 188.534 768.038 188.326C768.47 188.118 768.961 188.013 769.51 188.013C769.881 188.013 770.22 188.042 770.527 188.099C770.838 188.156 771.069 188.207 771.22 188.252L770.788 190.07C770.694 190.04 770.576 190.012 770.436 189.985C770.3 189.959 770.16 189.945 770.016 189.945C769.66 189.945 769.411 190.029 769.271 190.195C769.131 190.358 769.061 190.587 769.061 190.883V200.195H766.646ZM776.92 191.468V193.286H771.665V191.468H776.92ZM772.858 189.377H775.278V197.513C775.278 197.737 775.313 197.911 775.381 198.036C775.449 198.157 775.544 198.243 775.665 198.292C775.79 198.341 775.934 198.366 776.097 198.366C776.21 198.366 776.324 198.356 776.438 198.337C776.551 198.315 776.638 198.298 776.699 198.286L777.08 200.087C776.958 200.125 776.788 200.169 776.568 200.218C776.348 200.271 776.081 200.303 775.767 200.315C775.184 200.337 774.672 200.26 774.233 200.082C773.797 199.904 773.458 199.627 773.216 199.252C772.973 198.877 772.854 198.404 772.858 197.832V189.377Z" fill="black"/>
<path fill-rule="evenodd" clip-rule="evenodd" d="M754.75 207.125L743.5 222.125H751V229.625H758.5V222.125H766L754.75 207.125Z" stroke="black" stroke-width="2"/>
<path d="M576.902 189.639V192.205L566.438 196.482L576.902 200.748V203.314L563.098 197.631V195.299L576.902 189.639ZM568.219 237.686V236.314C568.875 236.127 569.359 235.838 569.672 235.447C569.984 235.057 570.141 234.549 570.141 233.924V233.631H568.219V230.104H571.77V233.49C571.77 234.654 571.469 235.592 570.867 236.303C570.273 237.014 569.391 237.475 568.219 237.686Z" fill="black"/>
<path d="M623.098 189.639L636.902 195.299V197.631L623.098 203.314V200.748L633.586 196.482L623.098 192.205V189.639ZM628.219 233.631V230.104H631.746V233.631H628.219Z" fill="black"/>
<path d="M688.447 198.615C688.447 198.529 688.443 198.416 688.436 198.275C688.428 198.127 688.424 198.018 688.424 197.947C688.424 197.26 688.498 196.689 688.646 196.236C688.795 195.775 689.033 195.346 689.361 194.947C689.611 194.65 689.982 194.311 690.475 193.928C690.975 193.545 691.299 193.268 691.447 193.096C691.76 192.744 691.975 192.428 692.092 192.146C692.209 191.865 692.268 191.557 692.268 191.221C692.268 190.479 692.061 189.9 691.646 189.486C691.232 189.072 690.654 188.865 689.912 188.865C689.17 188.865 688.584 189.115 688.154 189.615C687.732 190.107 687.502 190.803 687.463 191.701H684.158V191.338C684.158 189.689 684.678 188.377 685.717 187.4C686.764 186.416 688.17 185.924 689.936 185.924C691.74 185.924 693.174 186.389 694.236 187.318C695.307 188.24 695.842 189.479 695.842 191.033C695.842 191.58 695.779 192.072 695.654 192.51C695.537 192.939 695.353 193.334 695.104 193.693C694.783 194.146 694.287 194.639 693.615 195.17C692.951 195.693 692.549 196.018 692.408 196.143C692.111 196.432 691.896 196.736 691.764 197.057C691.639 197.377 691.576 197.76 691.576 198.205C691.576 198.244 691.58 198.311 691.588 198.404C691.596 198.498 691.6 198.568 691.6 198.615H688.447ZM688.283 203.631V200.197H691.74V203.631H688.283ZM686.314 235.857L692.127 215.924H693.732L687.896 235.857H686.314Z" fill="black"/>
<path d="M18 271.789C17.9114 273.096 17.4062 274.135 16.4844 274.906C15.5677 275.677 14.3698 276.062 12.8906 276.062C11.1875 276.062 9.86198 275.531 8.91406 274.469C7.97135 273.406 7.5 271.917 7.5 270C7.5 268.042 7.98177 266.542 8.94531 265.5C9.90885 264.458 11.2943 263.938 13.1016 263.938C14.5703 263.938 15.7292 264.297 16.5781 265.016C17.4323 265.729 17.901 266.74 17.9844 268.047H15.6484C15.5495 267.396 15.2838 266.901 14.8516 266.562C14.4193 266.219 13.8359 266.047 13.1016 266.047C12.0599 266.047 11.2682 266.383 10.7266 267.055C10.1849 267.727 9.91406 268.708 9.91406 270C9.91406 271.25 10.1823 272.216 10.7188 272.898C11.2604 273.581 12.0286 273.922 13.0234 273.922C13.7422 273.922 14.3307 273.74 14.7891 273.375C15.2474 273.005 15.5443 272.477 15.6797 271.789H18ZM23.4688 275.805C23.2604 275.81 23.0104 275.818 22.7188 275.828C22.4323 275.844 22.25 275.852 22.1719 275.852C21.3021 275.852 20.7057 275.69 20.3828 275.367C20.0651 275.039 19.9062 274.396 19.9062 273.438V268.844H18.7812V267.25H19.9062V264.93H22.1562V267.25H23.4688V268.844H22.1562V273.547C22.1562 273.771 22.2057 273.919 22.3047 273.992C22.4036 274.06 22.6068 274.094 22.9141 274.094H23.4688V275.805ZM24.7891 275.742V267.25H26.8984V268.703C27.1953 268.12 27.5417 267.693 27.9375 267.422C28.3333 267.146 28.8047 267.008 29.3516 267.008C29.4401 267.008 29.5078 267.01 29.5547 267.016C29.6068 267.016 29.6484 267.018 29.6797 267.023L29.6875 269.328H28.9297C28.3099 269.328 27.8437 269.49 27.5312 269.812C27.2187 270.135 27.0625 270.615 27.0625 271.25V275.742H24.7891ZM31.0234 275.742V264.234H33.2969V275.742H31.0234Z" fill="black"/>
<path d="M162.969 266.496L161.375 271.395H164.57L162.969 266.496ZM161.594 264.191H164.328L168.477 275.699H165.992L165.211 273.332H160.75L159.992 275.699H157.5L161.594 264.191ZM169.539 275.699V264.191H171.812V275.699H169.539ZM177.641 275.762C177.432 275.767 177.182 275.775 176.891 275.785C176.604 275.801 176.422 275.809 176.344 275.809C175.474 275.809 174.878 275.647 174.555 275.324C174.237 274.996 174.078 274.353 174.078 273.395V268.801H172.953V267.207H174.078V264.887H176.328V267.207H177.641V268.801H176.328V273.504C176.328 273.728 176.378 273.876 176.477 273.949C176.576 274.017 176.779 274.051 177.086 274.051H177.641V275.762Z" fill="black"/>
<path d="M828 271.789C827.911 273.096 827.406 274.135 826.484 274.906C825.568 275.677 824.37 276.062 822.891 276.062C821.187 276.062 819.862 275.531 818.914 274.469C817.971 273.406 817.5 271.917 817.5 270C817.5 268.042 817.982 266.542 818.945 265.5C819.909 264.458 821.294 263.938 823.102 263.938C824.57 263.938 825.729 264.297 826.578 265.016C827.432 265.729 827.901 266.74 827.984 268.047H825.648C825.549 267.396 825.284 266.901 824.852 266.562C824.419 266.219 823.836 266.047 823.102 266.047C822.06 266.047 821.268 266.383 820.727 267.055C820.185 267.727 819.914 268.708 819.914 270C819.914 271.25 820.182 272.216 820.719 272.898C821.26 273.581 822.029 273.922 823.023 273.922C823.742 273.922 824.331 273.74 824.789 273.375C825.247 273.005 825.544 272.477 825.68 271.789H828ZM833.469 275.805C833.26 275.81 833.01 275.818 832.719 275.828C832.432 275.844 832.25 275.852 832.172 275.852C831.302 275.852 830.706 275.69 830.383 275.367C830.065 275.039 829.906 274.396 829.906 273.438V268.844H828.781V267.25H829.906V264.93H832.156V267.25H833.469V268.844H832.156V273.547C832.156 273.771 832.206 273.919 832.305 273.992C832.404 274.06 832.607 274.094 832.914 274.094H833.469V275.805ZM834.789 275.742V267.25H836.898V268.703C837.195 268.12 837.542 267.693 837.938 267.422C838.333 267.146 838.805 267.008 839.352 267.008C839.44 267.008 839.508 267.01 839.555 267.016C839.607 267.016 839.648 267.018 839.68 267.023L839.688 269.328H838.93C838.31 269.328 837.844 269.49 837.531 269.812C837.219 270.135 837.062 270.615 837.062 271.25V275.742H834.789ZM841.023 275.742V264.234H843.297V275.742H841.023Z" fill="black"/>
<path d="M108.945 264.02L105.648 252.512H108.102L110.07 260.629L111.734 252.512H114.258L115.922 260.629L117.891 252.512H120.32L117.031 264.02H114.773L112.992 255.207L111.203 264.02H108.945ZM121.5 254.582V252.512H123.773V254.582H121.5ZM121.5 264.02V255.527H123.773V264.02H121.5ZM125.797 264.02V255.527H128.023V256.535C128.341 256.124 128.716 255.816 129.148 255.613C129.581 255.405 130.062 255.301 130.594 255.301C131.531 255.301 132.232 255.546 132.695 256.035C133.164 256.52 133.398 257.251 133.398 258.23V264.02H131.125V258.887C131.125 258.277 131.021 257.842 130.812 257.582C130.609 257.322 130.276 257.191 129.812 257.191C129.276 257.191 128.852 257.353 128.539 257.676C128.227 257.994 128.07 258.428 128.07 258.98V264.02H125.797ZM106.648 284.02V272.512H109.016V277.238L113.508 272.512H116.469L111.875 277.168L116.883 284.02H113.992L110.242 278.754L109.016 279.973V284.02H106.648ZM122.938 281.441H125.203C124.974 282.337 124.51 283.04 123.812 283.551C123.12 284.056 122.273 284.309 121.273 284.309C120.044 284.309 119.07 283.897 118.352 283.074C117.633 282.246 117.273 281.126 117.273 279.715C117.273 278.324 117.628 277.228 118.336 276.426C119.044 275.624 120.013 275.223 121.242 275.223C122.544 275.223 123.549 275.618 124.258 276.41C124.966 277.197 125.32 278.319 125.32 279.777C125.32 279.939 125.318 280.061 125.312 280.145C125.312 280.223 125.307 280.298 125.297 280.371H119.625C119.656 281.038 119.818 281.54 120.109 281.879C120.406 282.217 120.831 282.387 121.383 282.387C121.773 282.387 122.094 282.311 122.344 282.16C122.594 282.004 122.792 281.764 122.938 281.441ZM119.625 278.879H122.969C122.948 278.306 122.794 277.871 122.508 277.574C122.227 277.272 121.82 277.121 121.289 277.121C120.794 277.121 120.404 277.272 120.117 277.574C119.836 277.876 119.672 278.311 119.625 278.879ZM127.164 287.426V285.59C127.237 285.6 127.313 285.608 127.391 285.613C127.469 285.618 127.57 285.621 127.695 285.621C128.143 285.621 128.479 285.514 128.703 285.301C128.927 285.092 129.039 284.777 129.039 284.355C129.039 284.324 129.034 284.285 129.023 284.238C129.013 284.191 129.003 284.152 128.992 284.121L125.93 275.527H128.43L130.219 281.652L131.961 275.527H134.352L130.859 285.543C130.599 286.293 130.273 286.803 129.883 287.074C129.492 287.35 128.906 287.488 128.125 287.488C127.984 287.488 127.833 287.483 127.672 287.473C127.51 287.462 127.341 287.447 127.164 287.426Z" fill="black"/>
<path d="M708.945 264.02L705.648 252.512H708.102L710.07 260.629L711.734 252.512H714.258L715.922 260.629L717.891 252.512H720.32L717.031 264.02H714.773L712.992 255.207L711.203 264.02H708.945ZM721.5 254.582V252.512H723.773V254.582H721.5ZM721.5 264.02V255.527H723.773V264.02H721.5ZM725.797 264.02V255.527H728.023V256.535C728.341 256.124 728.716 255.816 729.148 255.613C729.581 255.405 730.062 255.301 730.594 255.301C731.531 255.301 732.232 255.546 732.695 256.035C733.164 256.52 733.398 257.251 733.398 258.23V264.02H731.125V258.887C731.125 258.277 731.021 257.842 730.812 257.582C730.609 257.322 730.276 257.191 729.812 257.191C729.276 257.191 728.852 257.353 728.539 257.676C728.227 257.994 728.07 258.428 728.07 258.98V264.02H725.797ZM706.648 284.02V272.512H709.016V277.238L713.508 272.512H716.469L711.875 277.168L716.883 284.02H713.992L710.242 278.754L709.016 279.973V284.02H706.648ZM722.938 281.441H725.203C724.974 282.337 724.51 283.04 723.812 283.551C723.12 284.056 722.273 284.309 721.273 284.309C720.044 284.309 719.07 283.897 718.352 283.074C717.633 282.246 717.273 281.126 717.273 279.715C717.273 278.324 717.628 277.228 718.336 276.426C719.044 275.624 720.013 275.223 721.242 275.223C722.544 275.223 723.549 275.618 724.258 276.41C724.966 277.197 725.32 278.319 725.32 279.777C725.32 279.939 725.318 280.061 725.312 280.145C725.312 280.223 725.307 280.298 725.297 280.371H719.625C719.656 281.038 719.818 281.54 720.109 281.879C720.406 282.217 720.831 282.387 721.383 282.387C721.773 282.387 722.094 282.311 722.344 282.16C722.594 282.004 722.792 281.764 722.938 281.441ZM719.625 278.879H722.969C722.948 278.306 722.794 277.871 722.508 277.574C722.227 277.272 721.82 277.121 721.289 277.121C720.794 277.121 720.404 277.272 720.117 277.574C719.836 277.876 719.672 278.311 719.625 278.879ZM727.164 287.426V285.59C727.237 285.6 727.312 285.608 727.391 285.613C727.469 285.618 727.57 285.621 727.695 285.621C728.143 285.621 728.479 285.514 728.703 285.301C728.927 285.092 729.039 284.777 729.039 284.355C729.039 284.324 729.034 284.285 729.023 284.238C729.013 284.191 729.003 284.152 728.992 284.121L725.93 275.527H728.43L730.219 281.652L731.961 275.527H734.352L730.859 285.543C730.599 286.293 730.273 286.803 729.883 287.074C729.492 287.35 728.906 287.488 728.125 287.488C727.984 287.488 727.833 287.483 727.672 287.473C727.51 287.462 727.341 287.447 727.164 287.426Z" fill="black"/>
<path d="M759.984 275.609V264.102H763.484L765.773 272.859L768.031 264.102H771.547V275.609H769.328V266.328L766.992 275.609H764.57L762.203 266.328V275.609H759.984ZM778.992 273.031H781.258C781.029 273.927 780.565 274.63 779.867 275.141C779.174 275.646 778.328 275.898 777.328 275.898C776.099 275.898 775.125 275.487 774.406 274.664C773.688 273.836 773.328 272.716 773.328 271.305C773.328 269.914 773.682 268.818 774.391 268.016C775.099 267.214 776.068 266.813 777.297 266.812C778.599 266.813 779.604 267.208 780.312 268C781.021 268.786 781.375 269.909 781.375 271.367C781.375 271.529 781.372 271.651 781.367 271.734C781.367 271.812 781.362 271.888 781.352 271.961H775.68C775.711 272.628 775.872 273.13 776.164 273.469C776.461 273.807 776.885 273.977 777.438 273.977C777.828 273.977 778.148 273.901 778.398 273.75C778.648 273.594 778.846 273.354 778.992 273.031ZM775.68 270.469H779.023C779.003 269.896 778.849 269.461 778.562 269.164C778.281 268.862 777.875 268.711 777.344 268.711C776.849 268.711 776.458 268.862 776.172 269.164C775.891 269.466 775.727 269.901 775.68 270.469ZM782.883 275.609V267.117H785.109V268.125C785.427 267.714 785.802 267.406 786.234 267.203C786.667 266.995 787.148 266.891 787.68 266.891C788.617 266.891 789.318 267.135 789.781 267.625C790.25 268.109 790.484 268.841 790.484 269.82V275.609H788.211V270.477C788.211 269.867 788.107 269.432 787.898 269.172C787.695 268.911 787.362 268.781 786.898 268.781C786.362 268.781 785.938 268.943 785.625 269.266C785.312 269.583 785.156 270.018 785.156 270.57V275.609H782.883ZM800.016 267.117V275.609H797.789V274.602C797.466 275.013 797.089 275.323 796.656 275.531C796.229 275.734 795.747 275.836 795.211 275.836C794.279 275.836 793.578 275.591 793.109 275.102C792.646 274.612 792.414 273.88 792.414 272.906V267.117H794.688V272.25C794.688 272.854 794.789 273.286 794.992 273.547C795.195 273.802 795.531 273.93 796 273.93C796.531 273.93 796.953 273.771 797.266 273.453C797.583 273.13 797.742 272.693 797.742 272.141V267.117H800.016Z" fill="black"/>
<path d="M612.969 266.496L611.375 271.395H614.57L612.969 266.496ZM611.594 264.191H614.328L618.477 275.699H615.992L615.211 273.332H610.75L609.992 275.699H607.5L611.594 264.191ZM619.539 275.699V264.191H621.812V275.699H619.539ZM627.641 275.762C627.432 275.767 627.182 275.775 626.891 275.785C626.604 275.801 626.422 275.809 626.344 275.809C625.474 275.809 624.878 275.647 624.555 275.324C624.237 274.996 624.078 274.353 624.078 273.394V268.801H622.953V267.207H624.078V264.887H626.328V267.207H627.641V268.801H626.328V273.504C626.328 273.728 626.378 273.876 626.477 273.949C626.576 274.017 626.779 274.051 627.086 274.051H627.641V275.762Z" fill="black"/>
<circle cx="164.5" cy="220.5" r="16.5" fill="#7DB700"/>
<circle cx="195.5" cy="160.5" r="16.5" fill="#7DB700"/>
<circle cx="250.5" cy="100.5" r="16.5" fill="#7DB700"/>
<circle cx="299.5" cy="100.5" r="16.5" fill="#7DB700"/>
<circle cx="359.5" cy="100.5" r="16.5" fill="#7DB700"/>
<circle cx="419.5" cy="100.5" r="16.5" fill="#7DB700"/>
<circle cx="479.5" cy="100.5" r="16.5" fill="#7DB700"/>
<circle cx="539.5" cy="100.5" r="16.5" fill="#7DB700"/>
<circle cx="599.5" cy="100.5" r="16.5" fill="#009FEB"/>
<circle cx="554.5" cy="160.5" r="16.5" fill="#009FEB"/>
<circle cx="524.5" cy="220.5" r="16.5" fill="#FEB504"/>
<circle cx="464.5" cy="220.5" r="16.5" fill="#FEB504"/>
<circle cx="404.5" cy="220.5" r="16.5" fill="#FEB504"/>
<circle cx="344.5" cy="220.5" r="16.5" fill="#FEB504"/>
<circle cx="284.5" cy="220.5" r="16.5" fill="#FEB504"/>
<circle cx="254.5" cy="160.5" r="16.5" fill="#FEB504"/>
<circle cx="229.5" cy="100.5" r="16.5" fill="#FEB504"/>
</g>
<defs>
<clipPath id="clip0_91_2">
<rect width="900" height="300" fill="white"/>
</clipPath>
</defs>
</svg>
