<svg width="128" height="64" viewBox="0 0 128 64" fill="none" xmlns="http://www.w3.org/2000/svg">
<path d="M44.15 19C46.5167 21 47.8 23.3167 48 25.95V26.05C47.8 28.6833 46.5333 30.9667 44.2 32.9L44 33.05C40.7 35.6833 36.7 37 32 37C27.2333 37 23.1667 35.65 19.8 32.95L19.7 32.9C17.4333 30.9667 16.2 28.7 16 26.1V26.05C16.1667 23.35 17.45 21 19.85 19L19.95 18.9C23.3167 16.3 27.3333 15 32 15C36.7667 15 40.8333 16.3333 44.2 19H44.15ZM43 50C43 51.6667 41.9167 53.0833 39.75 54.25C37.6167 55.4167 35.0333 56 32 56C29 56 26.4167 55.4167 24.25 54.25C22.0833 53.0833 21 51.6667 21 50V47.9C18.8667 47 16.8667 45.8 15 44.3C10.3333 40.5667 8 36.0167 8 30.65V30.1V29.55V29V28.5V28.1V27.95V27.4C8 22.0667 10.3333 17.4833 15 13.65C19.7 9.88333 25.3667 8 32 8C38.6667 8 44.3167 9.88333 48.95 13.65C53.65 17.4833 56 22.0667 56 27.4V27.95V28.1V28.5V29V29.55V30.1V30.65C56 36.0167 53.65 40.5667 48.95 44.3C47.1167 45.8 45.1333 47 43 47.9V50ZM31 30V20H28V33H37V30H31ZM12 27.4C12.0667 31.4333 13.8667 34.85 17.4 37.65C21.4333 40.8833 26.3 42.5 32 42.5C37.7 42.5 42.55 40.9 46.55 37.7L46.6 37.65C50.1333 34.8167 51.9333 31.4 52 27.4C51.9 23.4 50.0833 19.9667 46.55 17.1C42.55 13.9 37.7 12.3 32 12.3C26.3 12.3 21.4333 13.9 17.4 17.1H17.45C13.9167 19.9667 12.1 23.4 12 27.4Z" fill="#1e5c3d"/>
<path d="M108.15 19C110.517 21 111.8 23.3167 112 25.95V26.05C111.8 28.6833 110.533 30.9667 108.2 32.9L108 33.05C104.7 35.6833 100.7 37 96 37C91.2333 37 87.1667 35.65 83.8 32.95L83.7 32.9C81.4333 30.9667 80.2 28.7 80 26.1V26.05C80.1667 23.35 81.45 21 83.85 19L83.95 18.9C87.3167 16.3 91.3333 15 96 15C100.767 15 104.833 16.3333 108.2 19H108.15ZM107 50C107 51.6667 105.917 53.0833 103.75 54.25C101.617 55.4167 99.0333 56 96 56C93 56 90.4167 55.4167 88.25 54.25C86.0833 53.0833 85 51.6667 85 50V47.9C82.8667 47 80.8667 45.8 79 44.3C74.3333 40.5667 72 36.0167 72 30.65V30.1V29.55V29V28.5V28.1V27.95V27.4C72 22.0667 74.3333 17.4833 79 13.65C83.7 9.88333 89.3667 8 96 8C102.667 8 108.317 9.88333 112.95 13.65C117.65 17.4833 120 22.0667 120 27.4V27.95V28.1V28.5V29V29.55V30.1V30.65C120 36.0167 117.65 40.5667 112.95 44.3C111.117 45.8 109.133 47 107 47.9V50ZM97 30L98 29.9V30L99 33H102L100.5 28.5C101.5 27.5333 102 26.3667 102 25C102 23.6333 101.5 22.45 100.5 21.45C99.5333 20.4833 98.3667 20 97 20H91V33H94V30H97ZM94 27V23H97C97.5667 23 98.0333 23.1833 98.4 23.55C98.8 23.95 99 24.4333 99 25C99 25.5667 98.8 26.0333 98.4 26.4C98.0333 26.8 97.5833 27 97.05 27H94ZM76 27.4C76.0667 31.4333 77.8667 34.85 81.4 37.65C85.4333 40.8833 90.3 42.5 96 42.5C101.7 42.5 106.55 40.9 110.55 37.7L110.6 37.65C114.133 34.8167 115.933 31.4 116 27.4C115.9 23.4 114.083 19.9667 110.55 17.1C106.55 13.9 101.7 12.3 96 12.3C90.3 12.3 85.4333 13.9 81.4 17.1H81.45C77.9167 19.9667 76.1 23.4 76 27.4Z" fill="#1e4a5c"/>
</svg>
